G04 #@! TF.GenerationSoftware,KiCad,Pcbnew,(6.0.5)*
G04 #@! TF.CreationDate,2023-10-24T21:00:29+02:00*
G04 #@! TF.ProjectId,kicad-c128-byte-wide-color-ram,6b696361-642d-4633-9132-382d62797465,1.0*
G04 #@! TF.SameCoordinates,Original*
G04 #@! TF.FileFunction,Legend,Top*
G04 #@! TF.FilePolarity,Positive*
%FSLAX46Y46*%
G04 Gerber Fmt 4.6, Leading zero omitted, Abs format (unit mm)*
G04 Created by KiCad (PCBNEW (6.0.5)) date 2023-10-24 21:00:29*
%MOMM*%
%LPD*%
G01*
G04 APERTURE LIST*
%ADD10C,0.100000*%
%ADD11C,0.150000*%
%ADD12C,0.120000*%
%ADD13R,1.600000X1.600000*%
%ADD14O,1.600000X1.600000*%
%ADD15R,1.700000X1.700000*%
%ADD16O,1.700000X1.700000*%
G04 APERTURE END LIST*
D10*
X119410523Y-82188857D02*
X119410523Y-82688857D01*
X119410523Y-82212666D02*
X119458142Y-82188857D01*
X119553380Y-82188857D01*
X119601000Y-82212666D01*
X119624809Y-82236476D01*
X119648619Y-82284095D01*
X119648619Y-82426952D01*
X119624809Y-82474571D01*
X119601000Y-82498380D01*
X119553380Y-82522190D01*
X119458142Y-82522190D01*
X119410523Y-82498380D01*
X119862904Y-82522190D02*
X119862904Y-82188857D01*
X119862904Y-82022190D02*
X119839095Y-82046000D01*
X119862904Y-82069809D01*
X119886714Y-82046000D01*
X119862904Y-82022190D01*
X119862904Y-82069809D01*
X120101000Y-82188857D02*
X120101000Y-82522190D01*
X120101000Y-82236476D02*
X120124809Y-82212666D01*
X120172428Y-82188857D01*
X120243857Y-82188857D01*
X120291476Y-82212666D01*
X120315285Y-82260285D01*
X120315285Y-82522190D01*
X120529571Y-82498380D02*
X120577190Y-82522190D01*
X120672428Y-82522190D01*
X120720047Y-82498380D01*
X120743857Y-82450761D01*
X120743857Y-82426952D01*
X120720047Y-82379333D01*
X120672428Y-82355523D01*
X120601000Y-82355523D01*
X120553380Y-82331714D01*
X120529571Y-82284095D01*
X120529571Y-82260285D01*
X120553380Y-82212666D01*
X120601000Y-82188857D01*
X120672428Y-82188857D01*
X120720047Y-82212666D01*
X121291476Y-82188857D02*
X121410523Y-82522190D01*
X121529571Y-82188857D01*
D11*
X113319500Y-78844000D02*
X112786166Y-79044000D01*
X113319500Y-79244000D01*
X113652833Y-79044000D02*
X114186166Y-79044000D01*
X115019500Y-79277333D02*
X115086166Y-79310666D01*
X115219500Y-79310666D01*
X115286166Y-79277333D01*
X115319500Y-79210666D01*
X115319500Y-79177333D01*
X115286166Y-79110666D01*
X115219500Y-79077333D01*
X115119500Y-79077333D01*
X115052833Y-79044000D01*
X115019500Y-78977333D01*
X115019500Y-78944000D01*
X115052833Y-78877333D01*
X115119500Y-78844000D01*
X115219500Y-78844000D01*
X115286166Y-78877333D01*
X115719500Y-79310666D02*
X115652833Y-79277333D01*
X115619500Y-79244000D01*
X115586166Y-79177333D01*
X115586166Y-78977333D01*
X115619500Y-78910666D01*
X115652833Y-78877333D01*
X115719500Y-78844000D01*
X115819500Y-78844000D01*
X115886166Y-78877333D01*
X115919500Y-78910666D01*
X115952833Y-78977333D01*
X115952833Y-79177333D01*
X115919500Y-79244000D01*
X115886166Y-79277333D01*
X115819500Y-79310666D01*
X115719500Y-79310666D01*
X116552833Y-79277333D02*
X116486166Y-79310666D01*
X116352833Y-79310666D01*
X116286166Y-79277333D01*
X116252833Y-79244000D01*
X116219500Y-79177333D01*
X116219500Y-78977333D01*
X116252833Y-78910666D01*
X116286166Y-78877333D01*
X116352833Y-78844000D01*
X116486166Y-78844000D01*
X116552833Y-78877333D01*
X116852833Y-79310666D02*
X116852833Y-78610666D01*
X116919500Y-79044000D02*
X117119500Y-79310666D01*
X117119500Y-78844000D02*
X116852833Y-79110666D01*
X117686166Y-79277333D02*
X117619500Y-79310666D01*
X117486166Y-79310666D01*
X117419500Y-79277333D01*
X117386166Y-79210666D01*
X117386166Y-78944000D01*
X117419500Y-78877333D01*
X117486166Y-78844000D01*
X117619500Y-78844000D01*
X117686166Y-78877333D01*
X117719500Y-78944000D01*
X117719500Y-79010666D01*
X117386166Y-79077333D01*
X117919500Y-78844000D02*
X118186166Y-78844000D01*
X118019500Y-78610666D02*
X118019500Y-79210666D01*
X118052833Y-79277333D01*
X118119500Y-79310666D01*
X118186166Y-79310666D01*
X119152833Y-79577333D02*
X119119500Y-79544000D01*
X119052833Y-79444000D01*
X119019500Y-79377333D01*
X118986166Y-79277333D01*
X118952833Y-79110666D01*
X118952833Y-78977333D01*
X118986166Y-78810666D01*
X119019500Y-78710666D01*
X119052833Y-78644000D01*
X119119500Y-78544000D01*
X119152833Y-78510666D01*
X119719500Y-78610666D02*
X119586166Y-78610666D01*
X119519500Y-78644000D01*
X119486166Y-78677333D01*
X119419500Y-78777333D01*
X119386166Y-78910666D01*
X119386166Y-79177333D01*
X119419500Y-79244000D01*
X119452833Y-79277333D01*
X119519500Y-79310666D01*
X119652833Y-79310666D01*
X119719500Y-79277333D01*
X119752833Y-79244000D01*
X119786166Y-79177333D01*
X119786166Y-79010666D01*
X119752833Y-78944000D01*
X119719500Y-78910666D01*
X119652833Y-78877333D01*
X119519500Y-78877333D01*
X119452833Y-78910666D01*
X119419500Y-78944000D01*
X119386166Y-79010666D01*
X120052833Y-78677333D02*
X120086166Y-78644000D01*
X120152833Y-78610666D01*
X120319500Y-78610666D01*
X120386166Y-78644000D01*
X120419500Y-78677333D01*
X120452833Y-78744000D01*
X120452833Y-78810666D01*
X120419500Y-78910666D01*
X120019500Y-79310666D01*
X120452833Y-79310666D01*
X120719500Y-78677333D02*
X120752833Y-78644000D01*
X120819500Y-78610666D01*
X120986166Y-78610666D01*
X121052833Y-78644000D01*
X121086166Y-78677333D01*
X121119500Y-78744000D01*
X121119500Y-78810666D01*
X121086166Y-78910666D01*
X120686166Y-79310666D01*
X121119500Y-79310666D01*
X121752833Y-78610666D02*
X121419500Y-78610666D01*
X121386166Y-78944000D01*
X121419500Y-78910666D01*
X121486166Y-78877333D01*
X121652833Y-78877333D01*
X121719500Y-78910666D01*
X121752833Y-78944000D01*
X121786166Y-79010666D01*
X121786166Y-79177333D01*
X121752833Y-79244000D01*
X121719500Y-79277333D01*
X121652833Y-79310666D01*
X121486166Y-79310666D01*
X121419500Y-79277333D01*
X121386166Y-79244000D01*
X122386166Y-78610666D02*
X122252833Y-78610666D01*
X122186166Y-78644000D01*
X122152833Y-78677333D01*
X122086166Y-78777333D01*
X122052833Y-78910666D01*
X122052833Y-79177333D01*
X122086166Y-79244000D01*
X122119500Y-79277333D01*
X122186166Y-79310666D01*
X122319500Y-79310666D01*
X122386166Y-79277333D01*
X122419500Y-79244000D01*
X122452833Y-79177333D01*
X122452833Y-79010666D01*
X122419500Y-78944000D01*
X122386166Y-78910666D01*
X122319500Y-78877333D01*
X122186166Y-78877333D01*
X122119500Y-78910666D01*
X122086166Y-78944000D01*
X122052833Y-79010666D01*
X122686166Y-79577333D02*
X122719500Y-79544000D01*
X122786166Y-79444000D01*
X122819500Y-79377333D01*
X122852833Y-79277333D01*
X122886166Y-79110666D01*
X122886166Y-78977333D01*
X122852833Y-78810666D01*
X122819500Y-78710666D01*
X122786166Y-78644000D01*
X122719500Y-78544000D01*
X122686166Y-78510666D01*
X110296900Y-72113000D02*
X109763566Y-72313000D01*
X110296900Y-72513000D01*
X110630233Y-72313000D02*
X111163566Y-72313000D01*
X111996900Y-72379666D02*
X112330233Y-72379666D01*
X111930233Y-72579666D02*
X112163566Y-71879666D01*
X112396900Y-72579666D01*
X112996900Y-72579666D02*
X112596900Y-72579666D01*
X112796900Y-72579666D02*
X112796900Y-71879666D01*
X112730233Y-71979666D01*
X112663566Y-72046333D01*
X112596900Y-72079666D01*
X113663566Y-72579666D02*
X113263566Y-72579666D01*
X113463566Y-72579666D02*
X113463566Y-71879666D01*
X113396900Y-71979666D01*
X113330233Y-72046333D01*
X113263566Y-72079666D01*
X113796900Y-72646333D02*
X114330233Y-72646333D01*
X114463566Y-72379666D02*
X114796900Y-72379666D01*
X114396900Y-72579666D02*
X114630233Y-71879666D01*
X114863566Y-72579666D01*
X115463566Y-72579666D02*
X115063566Y-72579666D01*
X115263566Y-72579666D02*
X115263566Y-71879666D01*
X115196900Y-71979666D01*
X115130233Y-72046333D01*
X115063566Y-72079666D01*
X116063566Y-72113000D02*
X116063566Y-72579666D01*
X115896900Y-71846333D02*
X115730233Y-72346333D01*
X116163566Y-72346333D01*
D10*
X117863190Y-81736380D02*
X117910809Y-81760190D01*
X118006047Y-81760190D01*
X118053666Y-81736380D01*
X118077476Y-81688761D01*
X118077476Y-81664952D01*
X118053666Y-81617333D01*
X118006047Y-81593523D01*
X117934619Y-81593523D01*
X117887000Y-81569714D01*
X117863190Y-81522095D01*
X117863190Y-81498285D01*
X117887000Y-81450666D01*
X117934619Y-81426857D01*
X118006047Y-81426857D01*
X118053666Y-81450666D01*
X118363190Y-81760190D02*
X118315571Y-81736380D01*
X118291761Y-81712571D01*
X118267952Y-81664952D01*
X118267952Y-81522095D01*
X118291761Y-81474476D01*
X118315571Y-81450666D01*
X118363190Y-81426857D01*
X118434619Y-81426857D01*
X118482238Y-81450666D01*
X118506047Y-81474476D01*
X118529857Y-81522095D01*
X118529857Y-81664952D01*
X118506047Y-81712571D01*
X118482238Y-81736380D01*
X118434619Y-81760190D01*
X118363190Y-81760190D01*
X118958428Y-81736380D02*
X118910809Y-81760190D01*
X118815571Y-81760190D01*
X118767952Y-81736380D01*
X118744142Y-81712571D01*
X118720333Y-81664952D01*
X118720333Y-81522095D01*
X118744142Y-81474476D01*
X118767952Y-81450666D01*
X118815571Y-81426857D01*
X118910809Y-81426857D01*
X118958428Y-81450666D01*
X119172714Y-81760190D02*
X119172714Y-81260190D01*
X119220333Y-81569714D02*
X119363190Y-81760190D01*
X119363190Y-81426857D02*
X119172714Y-81617333D01*
X119767952Y-81736380D02*
X119720333Y-81760190D01*
X119625095Y-81760190D01*
X119577476Y-81736380D01*
X119553666Y-81688761D01*
X119553666Y-81498285D01*
X119577476Y-81450666D01*
X119625095Y-81426857D01*
X119720333Y-81426857D01*
X119767952Y-81450666D01*
X119791761Y-81498285D01*
X119791761Y-81545904D01*
X119553666Y-81593523D01*
X119934619Y-81426857D02*
X120125095Y-81426857D01*
X120006047Y-81260190D02*
X120006047Y-81688761D01*
X120029857Y-81736380D01*
X120077476Y-81760190D01*
X120125095Y-81760190D01*
X120815571Y-81950666D02*
X120791761Y-81926857D01*
X120744142Y-81855428D01*
X120720333Y-81807809D01*
X120696523Y-81736380D01*
X120672714Y-81617333D01*
X120672714Y-81522095D01*
X120696523Y-81403047D01*
X120720333Y-81331619D01*
X120744142Y-81284000D01*
X120791761Y-81212571D01*
X120815571Y-81188761D01*
X120982238Y-81307809D02*
X121006047Y-81284000D01*
X121053666Y-81260190D01*
X121172714Y-81260190D01*
X121220333Y-81284000D01*
X121244142Y-81307809D01*
X121267952Y-81355428D01*
X121267952Y-81403047D01*
X121244142Y-81474476D01*
X120958428Y-81760190D01*
X121267952Y-81760190D01*
X121577476Y-81260190D02*
X121625095Y-81260190D01*
X121672714Y-81284000D01*
X121696523Y-81307809D01*
X121720333Y-81355428D01*
X121744142Y-81450666D01*
X121744142Y-81569714D01*
X121720333Y-81664952D01*
X121696523Y-81712571D01*
X121672714Y-81736380D01*
X121625095Y-81760190D01*
X121577476Y-81760190D01*
X121529857Y-81736380D01*
X121506047Y-81712571D01*
X121482238Y-81664952D01*
X121458428Y-81569714D01*
X121458428Y-81450666D01*
X121482238Y-81355428D01*
X121506047Y-81307809D01*
X121529857Y-81284000D01*
X121577476Y-81260190D01*
X122172714Y-81260190D02*
X122077476Y-81260190D01*
X122029857Y-81284000D01*
X122006047Y-81307809D01*
X121958428Y-81379238D01*
X121934619Y-81474476D01*
X121934619Y-81664952D01*
X121958428Y-81712571D01*
X121982238Y-81736380D01*
X122029857Y-81760190D01*
X122125095Y-81760190D01*
X122172714Y-81736380D01*
X122196523Y-81712571D01*
X122220333Y-81664952D01*
X122220333Y-81545904D01*
X122196523Y-81498285D01*
X122172714Y-81474476D01*
X122125095Y-81450666D01*
X122029857Y-81450666D01*
X121982238Y-81474476D01*
X121958428Y-81498285D01*
X121934619Y-81545904D01*
X122648904Y-81260190D02*
X122553666Y-81260190D01*
X122506047Y-81284000D01*
X122482238Y-81307809D01*
X122434619Y-81379238D01*
X122410809Y-81474476D01*
X122410809Y-81664952D01*
X122434619Y-81712571D01*
X122458428Y-81736380D01*
X122506047Y-81760190D01*
X122601285Y-81760190D01*
X122648904Y-81736380D01*
X122672714Y-81712571D01*
X122696523Y-81664952D01*
X122696523Y-81545904D01*
X122672714Y-81498285D01*
X122648904Y-81474476D01*
X122601285Y-81450666D01*
X122506047Y-81450666D01*
X122458428Y-81474476D01*
X122434619Y-81498285D01*
X122410809Y-81545904D01*
X122863190Y-81950666D02*
X122887000Y-81926857D01*
X122934619Y-81855428D01*
X122958428Y-81807809D01*
X122982238Y-81736380D01*
X123006047Y-81617333D01*
X123006047Y-81522095D01*
X122982238Y-81403047D01*
X122958428Y-81331619D01*
X122934619Y-81284000D01*
X122887000Y-81212571D01*
X122863190Y-81188761D01*
X123577476Y-81426857D02*
X123696523Y-81760190D01*
X123815571Y-81426857D01*
D12*
X127120000Y-67123000D02*
X109100000Y-67123000D01*
X127060000Y-74913000D02*
X127060000Y-73263000D01*
X127120000Y-77403000D02*
X127120000Y-67123000D01*
X109100000Y-77403000D02*
X127120000Y-77403000D01*
X109160000Y-69613000D02*
X109160000Y-74913000D01*
X109160000Y-74913000D02*
X127060000Y-74913000D01*
X109100000Y-67123000D02*
X109100000Y-77403000D01*
X127060000Y-71263000D02*
X127060000Y-69613000D01*
X127060000Y-69613000D02*
X109160000Y-69613000D01*
X127060000Y-71263000D02*
G75*
G03*
X127060000Y-73263000I0J-1000000D01*
G01*
X108264000Y-67494000D02*
X105604000Y-67494000D01*
X108264000Y-76444000D02*
X108264000Y-77774000D01*
X108264000Y-75174000D02*
X108264000Y-67494000D01*
X108264000Y-75174000D02*
X105604000Y-75174000D01*
X108264000Y-77774000D02*
X106934000Y-77774000D01*
X105604000Y-75174000D02*
X105604000Y-67494000D01*
X105614000Y-66354000D02*
X105614000Y-65024000D01*
X106944000Y-66354000D02*
X105614000Y-66354000D01*
X115894000Y-66354000D02*
X115894000Y-63694000D01*
X108214000Y-63694000D02*
X115894000Y-63694000D01*
X108214000Y-66354000D02*
X108214000Y-63694000D01*
X108214000Y-66354000D02*
X115894000Y-66354000D01*
X108264000Y-81534000D02*
X108264000Y-81594000D01*
X105604000Y-81534000D02*
X108264000Y-81534000D01*
X105604000Y-81534000D02*
X105604000Y-81594000D01*
X105604000Y-80264000D02*
X105604000Y-78934000D01*
X105604000Y-78934000D02*
X106934000Y-78934000D01*
X105604000Y-81594000D02*
X108264000Y-81594000D01*
X109872000Y-113598000D02*
X115332000Y-113598000D01*
X117332000Y-113598000D02*
X122792000Y-113598000D01*
X109872000Y-82998000D02*
X109872000Y-113598000D01*
X122792000Y-113598000D02*
X122792000Y-82998000D01*
X122792000Y-82998000D02*
X109872000Y-82998000D01*
X117332000Y-113598000D02*
G75*
G03*
X115332000Y-113598000I-1000000J0D01*
G01*
X120506000Y-82998000D02*
X107586000Y-82998000D01*
X107586000Y-82998000D02*
X107586000Y-113598000D01*
X115046000Y-113598000D02*
X120506000Y-113598000D01*
X120506000Y-113598000D02*
X120506000Y-82998000D01*
X107586000Y-113598000D02*
X113046000Y-113598000D01*
X115046000Y-113598000D02*
G75*
G03*
X113046000Y-113598000I-1000000J0D01*
G01*
X125083000Y-77908000D02*
X112163000Y-77908000D01*
X112163000Y-77908000D02*
X112163000Y-113588000D01*
X125083000Y-113588000D02*
X125083000Y-77908000D01*
X112163000Y-113588000D02*
X117623000Y-113588000D01*
X119623000Y-113588000D02*
X125083000Y-113588000D01*
X119623000Y-113588000D02*
G75*
G03*
X117623000Y-113588000I-1000000J0D01*
G01*
%LPC*%
D13*
X125730000Y-68453000D03*
D14*
X123190000Y-68453000D03*
X120650000Y-68453000D03*
X118110000Y-68453000D03*
X115570000Y-68453000D03*
X113030000Y-68453000D03*
X110490000Y-68453000D03*
X110490000Y-76073000D03*
X113030000Y-76073000D03*
X115570000Y-76073000D03*
X118110000Y-76073000D03*
X120650000Y-76073000D03*
X123190000Y-76073000D03*
X125730000Y-76073000D03*
D15*
X106934000Y-76444000D03*
D16*
X106934000Y-73904000D03*
X106934000Y-71364000D03*
X106934000Y-68824000D03*
D15*
X106944000Y-65024000D03*
D16*
X109484000Y-65024000D03*
X112024000Y-65024000D03*
X114564000Y-65024000D03*
D15*
X106934000Y-80264000D03*
D13*
X123952000Y-112268000D03*
D14*
X123952000Y-109728000D03*
X123952000Y-107188000D03*
X123952000Y-104648000D03*
X123952000Y-102108000D03*
X123952000Y-99568000D03*
X123952000Y-97028000D03*
X123952000Y-94488000D03*
X123952000Y-91948000D03*
X123952000Y-89408000D03*
X123952000Y-86868000D03*
X123952000Y-84328000D03*
X108712000Y-84328000D03*
X108712000Y-86868000D03*
X108712000Y-89408000D03*
X108712000Y-91948000D03*
X108712000Y-94488000D03*
X108712000Y-97028000D03*
X108712000Y-99568000D03*
X108712000Y-102108000D03*
X108712000Y-104648000D03*
X108712000Y-107188000D03*
X108712000Y-109728000D03*
X108712000Y-112268000D03*
D13*
X121666000Y-112268000D03*
D14*
X121666000Y-109728000D03*
X121666000Y-107188000D03*
X121666000Y-104648000D03*
X121666000Y-102108000D03*
X121666000Y-99568000D03*
X121666000Y-97028000D03*
X121666000Y-94488000D03*
X121666000Y-91948000D03*
X121666000Y-89408000D03*
X121666000Y-86868000D03*
X121666000Y-84328000D03*
X106426000Y-84328000D03*
X106426000Y-86868000D03*
X106426000Y-89408000D03*
X106426000Y-91948000D03*
X106426000Y-94488000D03*
X106426000Y-97028000D03*
X106426000Y-99568000D03*
X106426000Y-102108000D03*
X106426000Y-104648000D03*
X106426000Y-107188000D03*
X106426000Y-109728000D03*
X106426000Y-112268000D03*
D13*
X126243000Y-112258000D03*
D14*
X126243000Y-109718000D03*
X126243000Y-107178000D03*
X126243000Y-104638000D03*
X126243000Y-102098000D03*
X126243000Y-99558000D03*
X126243000Y-97018000D03*
X126243000Y-94478000D03*
X126243000Y-91938000D03*
X126243000Y-89398000D03*
X126243000Y-86858000D03*
X126243000Y-84318000D03*
X126243000Y-81778000D03*
X126243000Y-79238000D03*
X111003000Y-79238000D03*
X111003000Y-81778000D03*
X111003000Y-84318000D03*
X111003000Y-86858000D03*
X111003000Y-89398000D03*
X111003000Y-91938000D03*
X111003000Y-94478000D03*
X111003000Y-97018000D03*
X111003000Y-99558000D03*
X111003000Y-102098000D03*
X111003000Y-104638000D03*
X111003000Y-107178000D03*
X111003000Y-109718000D03*
X111003000Y-112258000D03*
M02*
