M48
; DRILL file {KiCad (6.0.5)} date Mon Nov 13 21:27:16 2023
; FORMAT={-:-/ absolute / metric / decimal}
; #@! TF.CreationDate,2023-11-13T21:27:16+01:00
; #@! TF.GenerationSoftware,Kicad,Pcbnew,(6.0.5)
; #@! TF.FileFunction,Plated,1,2,PTH
FMAT,2
METRIC
; #@! TA.AperFunction,Plated,PTH,ViaDrill
T1C0.400
; #@! TA.AperFunction,Plated,PTH,ComponentDrill
T2C0.800
; #@! TA.AperFunction,Plated,PTH,ComponentDrill
T3C1.000
%
G90
G05
T1
X110.471Y-108.612
X113.657Y-108.275
X115.343Y-72.303
X120.631Y-72.305
X126.255Y-103.349
T2
X107.193Y-84.328
X107.193Y-86.868
X107.193Y-89.408
X107.193Y-91.948
X107.193Y-94.488
X107.193Y-97.028
X107.193Y-99.568
X107.193Y-102.108
X107.193Y-104.648
X107.193Y-107.188
X107.193Y-109.728
X107.193Y-112.268
X109.479Y-84.328
X109.479Y-86.868
X109.479Y-89.408
X109.479Y-91.948
X109.479Y-94.488
X109.479Y-97.028
X109.479Y-99.568
X109.479Y-102.108
X109.479Y-104.648
X109.479Y-107.188
X109.479Y-109.728
X109.479Y-112.268
X111.257Y-68.453
X111.257Y-76.073
X111.77Y-79.238
X111.77Y-81.778
X111.77Y-84.318
X111.77Y-86.858
X111.77Y-89.398
X111.77Y-91.938
X111.77Y-94.478
X111.77Y-97.018
X111.77Y-99.558
X111.77Y-102.098
X111.77Y-104.638
X111.77Y-107.178
X111.77Y-109.718
X111.77Y-112.258
X113.797Y-68.453
X113.797Y-76.073
X116.337Y-68.453
X116.337Y-76.073
X118.877Y-68.453
X118.877Y-76.073
X121.417Y-68.453
X121.417Y-76.073
X122.433Y-84.328
X122.433Y-86.868
X122.433Y-89.408
X122.433Y-91.948
X122.433Y-94.488
X122.433Y-97.028
X122.433Y-99.568
X122.433Y-102.108
X122.433Y-104.648
X122.433Y-107.188
X122.433Y-109.728
X122.433Y-112.268
X123.957Y-68.453
X123.957Y-76.073
X124.719Y-84.328
X124.719Y-86.868
X124.719Y-89.408
X124.719Y-91.948
X124.719Y-94.488
X124.719Y-97.028
X124.719Y-99.568
X124.719Y-102.108
X124.719Y-104.648
X124.719Y-107.188
X124.719Y-109.728
X124.719Y-112.268
X126.497Y-68.453
X126.497Y-76.073
X127.01Y-79.238
X127.01Y-81.778
X127.01Y-84.318
X127.01Y-86.858
X127.01Y-89.398
X127.01Y-91.938
X127.01Y-94.478
X127.01Y-97.018
X127.01Y-99.558
X127.01Y-102.098
X127.01Y-104.638
X127.01Y-107.178
X127.01Y-109.718
X127.01Y-112.258
T3
X106.934Y-68.824
X106.934Y-71.364
X106.934Y-73.904
X106.934Y-76.444
X106.934Y-80.264
X106.944Y-65.024
X109.484Y-65.024
X112.024Y-65.024
X114.564Y-65.024
T0
M30
