M48
; DRILL file {KiCad (6.0.5)} date Tue Oct 24 21:00:55 2023
; FORMAT={-:-/ absolute / metric / decimal}
; #@! TF.CreationDate,2023-10-24T21:00:55+02:00
; #@! TF.GenerationSoftware,Kicad,Pcbnew,(6.0.5)
; #@! TF.FileFunction,Plated,1,2,PTH
FMAT,2
METRIC
; #@! TA.AperFunction,Plated,PTH,ViaDrill
T1C0.400
; #@! TA.AperFunction,Plated,PTH,ComponentDrill
T2C0.800
; #@! TA.AperFunction,Plated,PTH,ComponentDrill
T3C1.000
%
G90
G05
T1
X105.533Y-113.378
X107.569Y-87.855
X109.073Y-77.147
X109.858Y-88.421
X112.407Y-97.259
X113.138Y-79.779
X113.138Y-85.625
X117.365Y-80.593
T2
X106.426Y-84.328
X106.426Y-86.868
X106.426Y-89.408
X106.426Y-91.948
X106.426Y-94.488
X106.426Y-97.028
X106.426Y-99.568
X106.426Y-102.108
X106.426Y-104.648
X106.426Y-107.188
X106.426Y-109.728
X106.426Y-112.268
X108.712Y-84.328
X108.712Y-86.868
X108.712Y-89.408
X108.712Y-91.948
X108.712Y-94.488
X108.712Y-97.028
X108.712Y-99.568
X108.712Y-102.108
X108.712Y-104.648
X108.712Y-107.188
X108.712Y-109.728
X108.712Y-112.268
X110.49Y-68.453
X110.49Y-76.073
X111.003Y-79.238
X111.003Y-81.778
X111.003Y-84.318
X111.003Y-86.858
X111.003Y-89.398
X111.003Y-91.938
X111.003Y-94.478
X111.003Y-97.018
X111.003Y-99.558
X111.003Y-102.098
X111.003Y-104.638
X111.003Y-107.178
X111.003Y-109.718
X111.003Y-112.258
X113.03Y-68.453
X113.03Y-76.073
X115.57Y-68.453
X115.57Y-76.073
X118.11Y-68.453
X118.11Y-76.073
X120.65Y-68.453
X120.65Y-76.073
X121.666Y-84.328
X121.666Y-86.868
X121.666Y-89.408
X121.666Y-91.948
X121.666Y-94.488
X121.666Y-97.028
X121.666Y-99.568
X121.666Y-102.108
X121.666Y-104.648
X121.666Y-107.188
X121.666Y-109.728
X121.666Y-112.268
X123.19Y-68.453
X123.19Y-76.073
X123.952Y-84.328
X123.952Y-86.868
X123.952Y-89.408
X123.952Y-91.948
X123.952Y-94.488
X123.952Y-97.028
X123.952Y-99.568
X123.952Y-102.108
X123.952Y-104.648
X123.952Y-107.188
X123.952Y-109.728
X123.952Y-112.268
X125.73Y-68.453
X125.73Y-76.073
X126.243Y-79.238
X126.243Y-81.778
X126.243Y-84.318
X126.243Y-86.858
X126.243Y-89.398
X126.243Y-91.938
X126.243Y-94.478
X126.243Y-97.018
X126.243Y-99.558
X126.243Y-102.098
X126.243Y-104.638
X126.243Y-107.178
X126.243Y-109.718
X126.243Y-112.258
T3
X106.934Y-68.824
X106.934Y-71.364
X106.934Y-73.904
X106.934Y-76.444
X106.934Y-80.264
X106.944Y-65.024
X109.484Y-65.024
X112.024Y-65.024
X114.564Y-65.024
T0
M30
