%FSLAX45Y45*%
G04 Gerber Fmt 4.5, Leading zero omitted, Abs format (unit mm)*
G04 Created by KiCad (PCBNEW (6.0.5)) date 2023-11-13 21:27:17*
%MOMM*%
%LPD*%
G01*
G04 APERTURE LIST*
%TA.AperFunction,Profile*%
%ADD10C,0.100000*%
%TD*%
%ADD11C,0.200000*%
%ADD12C,0.040000*%
%ADD13C,0.080000*%
%ADD14C,0.100000*%
G04 APERTURE END LIST*
D10*
X10490200Y-6299200D02*
X12877800Y-6299200D01*
X12877800Y-6299200D02*
X12877800Y-11430000D01*
X12877800Y-11430000D02*
X10490200Y-11430000D01*
X10490200Y-11430000D02*
X10490200Y-6299200D01*
D11*
D12*
X11027070Y-10841180D02*
X11067070Y-10881180D01*
X11067070Y-10841180D02*
X11027070Y-10881180D01*
X11345690Y-10807460D02*
X11385690Y-10847460D01*
X11385690Y-10807460D02*
X11345690Y-10847460D01*
X11514300Y-7210310D02*
X11554300Y-7250310D01*
X11554300Y-7210310D02*
X11514300Y-7250310D01*
X12043080Y-7210490D02*
X12083080Y-7250490D01*
X12083080Y-7210490D02*
X12043080Y-7250490D01*
X12605550Y-10314930D02*
X12645550Y-10354930D01*
X12645550Y-10314930D02*
X12605550Y-10354930D01*
D13*
X10759300Y-8432800D02*
G75*
G03*
X10759300Y-8432800I-40000J0D01*
G01*
X10759300Y-8686800D02*
G75*
G03*
X10759300Y-8686800I-40000J0D01*
G01*
X10759300Y-8940800D02*
G75*
G03*
X10759300Y-8940800I-40000J0D01*
G01*
X10759300Y-9194800D02*
G75*
G03*
X10759300Y-9194800I-40000J0D01*
G01*
X10759300Y-9448800D02*
G75*
G03*
X10759300Y-9448800I-40000J0D01*
G01*
X10759300Y-9702800D02*
G75*
G03*
X10759300Y-9702800I-40000J0D01*
G01*
X10759300Y-9956800D02*
G75*
G03*
X10759300Y-9956800I-40000J0D01*
G01*
X10759300Y-10210800D02*
G75*
G03*
X10759300Y-10210800I-40000J0D01*
G01*
X10759300Y-10464800D02*
G75*
G03*
X10759300Y-10464800I-40000J0D01*
G01*
X10759300Y-10718800D02*
G75*
G03*
X10759300Y-10718800I-40000J0D01*
G01*
X10759300Y-10972800D02*
G75*
G03*
X10759300Y-10972800I-40000J0D01*
G01*
X10759300Y-11226800D02*
G75*
G03*
X10759300Y-11226800I-40000J0D01*
G01*
X10987900Y-8432800D02*
G75*
G03*
X10987900Y-8432800I-40000J0D01*
G01*
X10987900Y-8686800D02*
G75*
G03*
X10987900Y-8686800I-40000J0D01*
G01*
X10987900Y-8940800D02*
G75*
G03*
X10987900Y-8940800I-40000J0D01*
G01*
X10987900Y-9194800D02*
G75*
G03*
X10987900Y-9194800I-40000J0D01*
G01*
X10987900Y-9448800D02*
G75*
G03*
X10987900Y-9448800I-40000J0D01*
G01*
X10987900Y-9702800D02*
G75*
G03*
X10987900Y-9702800I-40000J0D01*
G01*
X10987900Y-9956800D02*
G75*
G03*
X10987900Y-9956800I-40000J0D01*
G01*
X10987900Y-10210800D02*
G75*
G03*
X10987900Y-10210800I-40000J0D01*
G01*
X10987900Y-10464800D02*
G75*
G03*
X10987900Y-10464800I-40000J0D01*
G01*
X10987900Y-10718800D02*
G75*
G03*
X10987900Y-10718800I-40000J0D01*
G01*
X10987900Y-10972800D02*
G75*
G03*
X10987900Y-10972800I-40000J0D01*
G01*
X10987900Y-11226800D02*
G75*
G03*
X10987900Y-11226800I-40000J0D01*
G01*
X11165700Y-6845300D02*
G75*
G03*
X11165700Y-6845300I-40000J0D01*
G01*
X11165700Y-7607300D02*
G75*
G03*
X11165700Y-7607300I-40000J0D01*
G01*
X11217000Y-7923800D02*
G75*
G03*
X11217000Y-7923800I-40000J0D01*
G01*
X11217000Y-8177800D02*
G75*
G03*
X11217000Y-8177800I-40000J0D01*
G01*
X11217000Y-8431800D02*
G75*
G03*
X11217000Y-8431800I-40000J0D01*
G01*
X11217000Y-8685800D02*
G75*
G03*
X11217000Y-8685800I-40000J0D01*
G01*
X11217000Y-8939800D02*
G75*
G03*
X11217000Y-8939800I-40000J0D01*
G01*
X11217000Y-9193800D02*
G75*
G03*
X11217000Y-9193800I-40000J0D01*
G01*
X11217000Y-9447800D02*
G75*
G03*
X11217000Y-9447800I-40000J0D01*
G01*
X11217000Y-9701800D02*
G75*
G03*
X11217000Y-9701800I-40000J0D01*
G01*
X11217000Y-9955800D02*
G75*
G03*
X11217000Y-9955800I-40000J0D01*
G01*
X11217000Y-10209800D02*
G75*
G03*
X11217000Y-10209800I-40000J0D01*
G01*
X11217000Y-10463800D02*
G75*
G03*
X11217000Y-10463800I-40000J0D01*
G01*
X11217000Y-10717800D02*
G75*
G03*
X11217000Y-10717800I-40000J0D01*
G01*
X11217000Y-10971800D02*
G75*
G03*
X11217000Y-10971800I-40000J0D01*
G01*
X11217000Y-11225800D02*
G75*
G03*
X11217000Y-11225800I-40000J0D01*
G01*
X11419700Y-6845300D02*
G75*
G03*
X11419700Y-6845300I-40000J0D01*
G01*
X11419700Y-7607300D02*
G75*
G03*
X11419700Y-7607300I-40000J0D01*
G01*
X11673700Y-6845300D02*
G75*
G03*
X11673700Y-6845300I-40000J0D01*
G01*
X11673700Y-7607300D02*
G75*
G03*
X11673700Y-7607300I-40000J0D01*
G01*
X11927700Y-6845300D02*
G75*
G03*
X11927700Y-6845300I-40000J0D01*
G01*
X11927700Y-7607300D02*
G75*
G03*
X11927700Y-7607300I-40000J0D01*
G01*
X12181700Y-6845300D02*
G75*
G03*
X12181700Y-6845300I-40000J0D01*
G01*
X12181700Y-7607300D02*
G75*
G03*
X12181700Y-7607300I-40000J0D01*
G01*
X12283300Y-8432800D02*
G75*
G03*
X12283300Y-8432800I-40000J0D01*
G01*
X12283300Y-8686800D02*
G75*
G03*
X12283300Y-8686800I-40000J0D01*
G01*
X12283300Y-8940800D02*
G75*
G03*
X12283300Y-8940800I-40000J0D01*
G01*
X12283300Y-9194800D02*
G75*
G03*
X12283300Y-9194800I-40000J0D01*
G01*
X12283300Y-9448800D02*
G75*
G03*
X12283300Y-9448800I-40000J0D01*
G01*
X12283300Y-9702800D02*
G75*
G03*
X12283300Y-9702800I-40000J0D01*
G01*
X12283300Y-9956800D02*
G75*
G03*
X12283300Y-9956800I-40000J0D01*
G01*
X12283300Y-10210800D02*
G75*
G03*
X12283300Y-10210800I-40000J0D01*
G01*
X12283300Y-10464800D02*
G75*
G03*
X12283300Y-10464800I-40000J0D01*
G01*
X12283300Y-10718800D02*
G75*
G03*
X12283300Y-10718800I-40000J0D01*
G01*
X12283300Y-10972800D02*
G75*
G03*
X12283300Y-10972800I-40000J0D01*
G01*
X12283300Y-11226800D02*
G75*
G03*
X12283300Y-11226800I-40000J0D01*
G01*
X12435700Y-6845300D02*
G75*
G03*
X12435700Y-6845300I-40000J0D01*
G01*
X12435700Y-7607300D02*
G75*
G03*
X12435700Y-7607300I-40000J0D01*
G01*
X12511900Y-8432800D02*
G75*
G03*
X12511900Y-8432800I-40000J0D01*
G01*
X12511900Y-8686800D02*
G75*
G03*
X12511900Y-8686800I-40000J0D01*
G01*
X12511900Y-8940800D02*
G75*
G03*
X12511900Y-8940800I-40000J0D01*
G01*
X12511900Y-9194800D02*
G75*
G03*
X12511900Y-9194800I-40000J0D01*
G01*
X12511900Y-9448800D02*
G75*
G03*
X12511900Y-9448800I-40000J0D01*
G01*
X12511900Y-9702800D02*
G75*
G03*
X12511900Y-9702800I-40000J0D01*
G01*
X12511900Y-9956800D02*
G75*
G03*
X12511900Y-9956800I-40000J0D01*
G01*
X12511900Y-10210800D02*
G75*
G03*
X12511900Y-10210800I-40000J0D01*
G01*
X12511900Y-10464800D02*
G75*
G03*
X12511900Y-10464800I-40000J0D01*
G01*
X12511900Y-10718800D02*
G75*
G03*
X12511900Y-10718800I-40000J0D01*
G01*
X12511900Y-10972800D02*
G75*
G03*
X12511900Y-10972800I-40000J0D01*
G01*
X12511900Y-11226800D02*
G75*
G03*
X12511900Y-11226800I-40000J0D01*
G01*
X12689700Y-6845300D02*
G75*
G03*
X12689700Y-6845300I-40000J0D01*
G01*
X12689700Y-7607300D02*
G75*
G03*
X12689700Y-7607300I-40000J0D01*
G01*
X12741000Y-7923800D02*
G75*
G03*
X12741000Y-7923800I-40000J0D01*
G01*
X12741000Y-8177800D02*
G75*
G03*
X12741000Y-8177800I-40000J0D01*
G01*
X12741000Y-8431800D02*
G75*
G03*
X12741000Y-8431800I-40000J0D01*
G01*
X12741000Y-8685800D02*
G75*
G03*
X12741000Y-8685800I-40000J0D01*
G01*
X12741000Y-8939800D02*
G75*
G03*
X12741000Y-8939800I-40000J0D01*
G01*
X12741000Y-9193800D02*
G75*
G03*
X12741000Y-9193800I-40000J0D01*
G01*
X12741000Y-9447800D02*
G75*
G03*
X12741000Y-9447800I-40000J0D01*
G01*
X12741000Y-9701800D02*
G75*
G03*
X12741000Y-9701800I-40000J0D01*
G01*
X12741000Y-9955800D02*
G75*
G03*
X12741000Y-9955800I-40000J0D01*
G01*
X12741000Y-10209800D02*
G75*
G03*
X12741000Y-10209800I-40000J0D01*
G01*
X12741000Y-10463800D02*
G75*
G03*
X12741000Y-10463800I-40000J0D01*
G01*
X12741000Y-10717800D02*
G75*
G03*
X12741000Y-10717800I-40000J0D01*
G01*
X12741000Y-10971800D02*
G75*
G03*
X12741000Y-10971800I-40000J0D01*
G01*
X12741000Y-11225800D02*
G75*
G03*
X12741000Y-11225800I-40000J0D01*
G01*
D14*
X10693400Y-6832400D02*
X10693400Y-6932400D01*
X10643400Y-6882400D02*
X10743400Y-6882400D01*
X10693400Y-7086400D02*
X10693400Y-7186400D01*
X10643400Y-7136400D02*
X10743400Y-7136400D01*
X10693400Y-7340400D02*
X10693400Y-7440400D01*
X10643400Y-7390400D02*
X10743400Y-7390400D01*
X10693400Y-7594400D02*
X10693400Y-7694400D01*
X10643400Y-7644400D02*
X10743400Y-7644400D01*
X10693400Y-7976400D02*
X10693400Y-8076400D01*
X10643400Y-8026400D02*
X10743400Y-8026400D01*
X10694400Y-6452400D02*
X10694400Y-6552400D01*
X10644400Y-6502400D02*
X10744400Y-6502400D01*
X10948400Y-6452400D02*
X10948400Y-6552400D01*
X10898400Y-6502400D02*
X10998400Y-6502400D01*
X11202400Y-6452400D02*
X11202400Y-6552400D01*
X11152400Y-6502400D02*
X11252400Y-6502400D01*
X11456400Y-6452400D02*
X11456400Y-6552400D01*
X11406400Y-6502400D02*
X11506400Y-6502400D01*
D11*
X10742819Y-11745476D02*
X10742819Y-11545476D01*
X10790438Y-11545476D01*
X10819010Y-11555000D01*
X10838057Y-11574048D01*
X10847581Y-11593095D01*
X10857105Y-11631190D01*
X10857105Y-11659762D01*
X10847581Y-11697857D01*
X10838057Y-11716905D01*
X10819010Y-11735952D01*
X10790438Y-11745476D01*
X10742819Y-11745476D01*
X10942819Y-11745476D02*
X10942819Y-11612143D01*
X10942819Y-11650238D02*
X10952343Y-11631190D01*
X10961867Y-11621667D01*
X10980914Y-11612143D01*
X10999962Y-11612143D01*
X11066629Y-11745476D02*
X11066629Y-11612143D01*
X11066629Y-11545476D02*
X11057105Y-11555000D01*
X11066629Y-11564524D01*
X11076152Y-11555000D01*
X11066629Y-11545476D01*
X11066629Y-11564524D01*
X11190438Y-11745476D02*
X11171390Y-11735952D01*
X11161867Y-11716905D01*
X11161867Y-11545476D01*
X11295200Y-11745476D02*
X11276152Y-11735952D01*
X11266628Y-11716905D01*
X11266628Y-11545476D01*
X11523771Y-11745476D02*
X11523771Y-11545476D01*
X11590438Y-11688333D01*
X11657105Y-11545476D01*
X11657105Y-11745476D01*
X11838057Y-11745476D02*
X11838057Y-11640714D01*
X11828533Y-11621667D01*
X11809486Y-11612143D01*
X11771390Y-11612143D01*
X11752343Y-11621667D01*
X11838057Y-11735952D02*
X11819009Y-11745476D01*
X11771390Y-11745476D01*
X11752343Y-11735952D01*
X11742819Y-11716905D01*
X11742819Y-11697857D01*
X11752343Y-11678809D01*
X11771390Y-11669286D01*
X11819009Y-11669286D01*
X11838057Y-11659762D01*
X11933295Y-11612143D02*
X11933295Y-11812143D01*
X11933295Y-11621667D02*
X11952343Y-11612143D01*
X11990438Y-11612143D01*
X12009486Y-11621667D01*
X12019009Y-11631190D01*
X12028533Y-11650238D01*
X12028533Y-11707381D01*
X12019009Y-11726428D01*
X12009486Y-11735952D01*
X11990438Y-11745476D01*
X11952343Y-11745476D01*
X11933295Y-11735952D01*
X12114248Y-11726428D02*
X12123771Y-11735952D01*
X12114248Y-11745476D01*
X12104724Y-11735952D01*
X12114248Y-11726428D01*
X12114248Y-11745476D01*
X12114248Y-11621667D02*
X12123771Y-11631190D01*
X12114248Y-11640714D01*
X12104724Y-11631190D01*
X12114248Y-11621667D01*
X12114248Y-11640714D01*
D12*
X10445200Y-12055000D02*
X10485200Y-12095000D01*
X10485200Y-12055000D02*
X10445200Y-12095000D01*
D11*
X10780914Y-11965476D02*
X10799962Y-11965476D01*
X10819010Y-11975000D01*
X10828533Y-11984524D01*
X10838057Y-12003571D01*
X10847581Y-12041667D01*
X10847581Y-12089286D01*
X10838057Y-12127381D01*
X10828533Y-12146428D01*
X10819010Y-12155952D01*
X10799962Y-12165476D01*
X10780914Y-12165476D01*
X10761867Y-12155952D01*
X10752343Y-12146428D01*
X10742819Y-12127381D01*
X10733295Y-12089286D01*
X10733295Y-12041667D01*
X10742819Y-12003571D01*
X10752343Y-11984524D01*
X10761867Y-11975000D01*
X10780914Y-11965476D01*
X10933295Y-12146428D02*
X10942819Y-12155952D01*
X10933295Y-12165476D01*
X10923771Y-12155952D01*
X10933295Y-12146428D01*
X10933295Y-12165476D01*
X11114248Y-12032143D02*
X11114248Y-12165476D01*
X11066629Y-11955952D02*
X11019010Y-12098809D01*
X11142819Y-12098809D01*
X11257105Y-11965476D02*
X11276152Y-11965476D01*
X11295200Y-11975000D01*
X11304724Y-11984524D01*
X11314248Y-12003571D01*
X11323771Y-12041667D01*
X11323771Y-12089286D01*
X11314248Y-12127381D01*
X11304724Y-12146428D01*
X11295200Y-12155952D01*
X11276152Y-12165476D01*
X11257105Y-12165476D01*
X11238057Y-12155952D01*
X11228533Y-12146428D01*
X11219009Y-12127381D01*
X11209486Y-12089286D01*
X11209486Y-12041667D01*
X11219009Y-12003571D01*
X11228533Y-11984524D01*
X11238057Y-11975000D01*
X11257105Y-11965476D01*
X11447581Y-11965476D02*
X11466628Y-11965476D01*
X11485676Y-11975000D01*
X11495200Y-11984524D01*
X11504724Y-12003571D01*
X11514248Y-12041667D01*
X11514248Y-12089286D01*
X11504724Y-12127381D01*
X11495200Y-12146428D01*
X11485676Y-12155952D01*
X11466628Y-12165476D01*
X11447581Y-12165476D01*
X11428533Y-12155952D01*
X11419009Y-12146428D01*
X11409486Y-12127381D01*
X11399962Y-12089286D01*
X11399962Y-12041667D01*
X11409486Y-12003571D01*
X11419009Y-11984524D01*
X11428533Y-11975000D01*
X11447581Y-11965476D01*
X11599962Y-12165476D02*
X11599962Y-12032143D01*
X11599962Y-12051190D02*
X11609486Y-12041667D01*
X11628533Y-12032143D01*
X11657105Y-12032143D01*
X11676152Y-12041667D01*
X11685676Y-12060714D01*
X11685676Y-12165476D01*
X11685676Y-12060714D02*
X11695200Y-12041667D01*
X11714248Y-12032143D01*
X11742819Y-12032143D01*
X11761867Y-12041667D01*
X11771390Y-12060714D01*
X11771390Y-12165476D01*
X11866628Y-12165476D02*
X11866628Y-12032143D01*
X11866628Y-12051190D02*
X11876152Y-12041667D01*
X11895200Y-12032143D01*
X11923771Y-12032143D01*
X11942819Y-12041667D01*
X11952343Y-12060714D01*
X11952343Y-12165476D01*
X11952343Y-12060714D02*
X11961867Y-12041667D01*
X11980914Y-12032143D01*
X12009486Y-12032143D01*
X12028533Y-12041667D01*
X12038057Y-12060714D01*
X12038057Y-12165476D01*
X12428533Y-11955952D02*
X12257105Y-12213095D01*
X12685676Y-11965476D02*
X12704724Y-11965476D01*
X12723771Y-11975000D01*
X12733295Y-11984524D01*
X12742819Y-12003571D01*
X12752343Y-12041667D01*
X12752343Y-12089286D01*
X12742819Y-12127381D01*
X12733295Y-12146428D01*
X12723771Y-12155952D01*
X12704724Y-12165476D01*
X12685676Y-12165476D01*
X12666628Y-12155952D01*
X12657105Y-12146428D01*
X12647581Y-12127381D01*
X12638057Y-12089286D01*
X12638057Y-12041667D01*
X12647581Y-12003571D01*
X12657105Y-11984524D01*
X12666628Y-11975000D01*
X12685676Y-11965476D01*
X12838057Y-12146428D02*
X12847581Y-12155952D01*
X12838057Y-12165476D01*
X12828533Y-12155952D01*
X12838057Y-12146428D01*
X12838057Y-12165476D01*
X12971390Y-11965476D02*
X12990438Y-11965476D01*
X13009486Y-11975000D01*
X13019009Y-11984524D01*
X13028533Y-12003571D01*
X13038057Y-12041667D01*
X13038057Y-12089286D01*
X13028533Y-12127381D01*
X13019009Y-12146428D01*
X13009486Y-12155952D01*
X12990438Y-12165476D01*
X12971390Y-12165476D01*
X12952343Y-12155952D01*
X12942819Y-12146428D01*
X12933295Y-12127381D01*
X12923771Y-12089286D01*
X12923771Y-12041667D01*
X12933295Y-12003571D01*
X12942819Y-11984524D01*
X12952343Y-11975000D01*
X12971390Y-11965476D01*
X13228533Y-12165476D02*
X13114248Y-12165476D01*
X13171390Y-12165476D02*
X13171390Y-11965476D01*
X13152343Y-11994048D01*
X13133295Y-12013095D01*
X13114248Y-12022619D01*
X13409486Y-11965476D02*
X13314248Y-11965476D01*
X13304724Y-12060714D01*
X13314248Y-12051190D01*
X13333295Y-12041667D01*
X13380914Y-12041667D01*
X13399962Y-12051190D01*
X13409486Y-12060714D01*
X13419009Y-12079762D01*
X13419009Y-12127381D01*
X13409486Y-12146428D01*
X13399962Y-12155952D01*
X13380914Y-12165476D01*
X13333295Y-12165476D01*
X13314248Y-12155952D01*
X13304724Y-12146428D01*
X13485676Y-11965476D02*
X13619009Y-11965476D01*
X13533295Y-12165476D01*
X13685676Y-11965476D02*
X13685676Y-12003571D01*
X13761867Y-11965476D02*
X13761867Y-12003571D01*
X14057105Y-12241667D02*
X14047581Y-12232143D01*
X14028533Y-12203571D01*
X14019009Y-12184524D01*
X14009486Y-12155952D01*
X13999962Y-12108333D01*
X13999962Y-12070238D01*
X14009486Y-12022619D01*
X14019009Y-11994048D01*
X14028533Y-11975000D01*
X14047581Y-11946428D01*
X14057105Y-11936905D01*
X14228533Y-11965476D02*
X14133295Y-11965476D01*
X14123771Y-12060714D01*
X14133295Y-12051190D01*
X14152343Y-12041667D01*
X14199962Y-12041667D01*
X14219009Y-12051190D01*
X14228533Y-12060714D01*
X14238057Y-12079762D01*
X14238057Y-12127381D01*
X14228533Y-12146428D01*
X14219009Y-12155952D01*
X14199962Y-12165476D01*
X14152343Y-12165476D01*
X14133295Y-12155952D01*
X14123771Y-12146428D01*
X14476152Y-12165476D02*
X14476152Y-11965476D01*
X14561867Y-12165476D02*
X14561867Y-12060714D01*
X14552343Y-12041667D01*
X14533295Y-12032143D01*
X14504724Y-12032143D01*
X14485676Y-12041667D01*
X14476152Y-12051190D01*
X14685676Y-12165476D02*
X14666628Y-12155952D01*
X14657105Y-12146428D01*
X14647581Y-12127381D01*
X14647581Y-12070238D01*
X14657105Y-12051190D01*
X14666628Y-12041667D01*
X14685676Y-12032143D01*
X14714248Y-12032143D01*
X14733295Y-12041667D01*
X14742819Y-12051190D01*
X14752343Y-12070238D01*
X14752343Y-12127381D01*
X14742819Y-12146428D01*
X14733295Y-12155952D01*
X14714248Y-12165476D01*
X14685676Y-12165476D01*
X14866628Y-12165476D02*
X14847581Y-12155952D01*
X14838057Y-12136905D01*
X14838057Y-11965476D01*
X15019009Y-12155952D02*
X14999962Y-12165476D01*
X14961867Y-12165476D01*
X14942819Y-12155952D01*
X14933295Y-12136905D01*
X14933295Y-12060714D01*
X14942819Y-12041667D01*
X14961867Y-12032143D01*
X14999962Y-12032143D01*
X15019009Y-12041667D01*
X15028533Y-12060714D01*
X15028533Y-12079762D01*
X14933295Y-12098809D01*
X15104724Y-12155952D02*
X15123771Y-12165476D01*
X15161867Y-12165476D01*
X15180914Y-12155952D01*
X15190438Y-12136905D01*
X15190438Y-12127381D01*
X15180914Y-12108333D01*
X15161867Y-12098809D01*
X15133295Y-12098809D01*
X15114248Y-12089286D01*
X15104724Y-12070238D01*
X15104724Y-12060714D01*
X15114248Y-12041667D01*
X15133295Y-12032143D01*
X15161867Y-12032143D01*
X15180914Y-12041667D01*
X15257105Y-12241667D02*
X15266628Y-12232143D01*
X15285676Y-12203571D01*
X15295200Y-12184524D01*
X15304724Y-12155952D01*
X15314248Y-12108333D01*
X15314248Y-12070238D01*
X15304724Y-12022619D01*
X15295200Y-11994048D01*
X15285676Y-11975000D01*
X15266628Y-11946428D01*
X15257105Y-11936905D01*
D13*
X10485200Y-12339000D02*
G75*
G03*
X10485200Y-12339000I-40000J0D01*
G01*
D11*
X10780914Y-12229476D02*
X10799962Y-12229476D01*
X10819010Y-12239000D01*
X10828533Y-12248524D01*
X10838057Y-12267571D01*
X10847581Y-12305667D01*
X10847581Y-12353286D01*
X10838057Y-12391381D01*
X10828533Y-12410428D01*
X10819010Y-12419952D01*
X10799962Y-12429476D01*
X10780914Y-12429476D01*
X10761867Y-12419952D01*
X10752343Y-12410428D01*
X10742819Y-12391381D01*
X10733295Y-12353286D01*
X10733295Y-12305667D01*
X10742819Y-12267571D01*
X10752343Y-12248524D01*
X10761867Y-12239000D01*
X10780914Y-12229476D01*
X10933295Y-12410428D02*
X10942819Y-12419952D01*
X10933295Y-12429476D01*
X10923771Y-12419952D01*
X10933295Y-12410428D01*
X10933295Y-12429476D01*
X11057105Y-12315190D02*
X11038057Y-12305667D01*
X11028533Y-12296143D01*
X11019010Y-12277095D01*
X11019010Y-12267571D01*
X11028533Y-12248524D01*
X11038057Y-12239000D01*
X11057105Y-12229476D01*
X11095200Y-12229476D01*
X11114248Y-12239000D01*
X11123771Y-12248524D01*
X11133295Y-12267571D01*
X11133295Y-12277095D01*
X11123771Y-12296143D01*
X11114248Y-12305667D01*
X11095200Y-12315190D01*
X11057105Y-12315190D01*
X11038057Y-12324714D01*
X11028533Y-12334238D01*
X11019010Y-12353286D01*
X11019010Y-12391381D01*
X11028533Y-12410428D01*
X11038057Y-12419952D01*
X11057105Y-12429476D01*
X11095200Y-12429476D01*
X11114248Y-12419952D01*
X11123771Y-12410428D01*
X11133295Y-12391381D01*
X11133295Y-12353286D01*
X11123771Y-12334238D01*
X11114248Y-12324714D01*
X11095200Y-12315190D01*
X11257105Y-12229476D02*
X11276152Y-12229476D01*
X11295200Y-12239000D01*
X11304724Y-12248524D01*
X11314248Y-12267571D01*
X11323771Y-12305667D01*
X11323771Y-12353286D01*
X11314248Y-12391381D01*
X11304724Y-12410428D01*
X11295200Y-12419952D01*
X11276152Y-12429476D01*
X11257105Y-12429476D01*
X11238057Y-12419952D01*
X11228533Y-12410428D01*
X11219009Y-12391381D01*
X11209486Y-12353286D01*
X11209486Y-12305667D01*
X11219009Y-12267571D01*
X11228533Y-12248524D01*
X11238057Y-12239000D01*
X11257105Y-12229476D01*
X11447581Y-12229476D02*
X11466628Y-12229476D01*
X11485676Y-12239000D01*
X11495200Y-12248524D01*
X11504724Y-12267571D01*
X11514248Y-12305667D01*
X11514248Y-12353286D01*
X11504724Y-12391381D01*
X11495200Y-12410428D01*
X11485676Y-12419952D01*
X11466628Y-12429476D01*
X11447581Y-12429476D01*
X11428533Y-12419952D01*
X11419009Y-12410428D01*
X11409486Y-12391381D01*
X11399962Y-12353286D01*
X11399962Y-12305667D01*
X11409486Y-12267571D01*
X11419009Y-12248524D01*
X11428533Y-12239000D01*
X11447581Y-12229476D01*
X11599962Y-12429476D02*
X11599962Y-12296143D01*
X11599962Y-12315190D02*
X11609486Y-12305667D01*
X11628533Y-12296143D01*
X11657105Y-12296143D01*
X11676152Y-12305667D01*
X11685676Y-12324714D01*
X11685676Y-12429476D01*
X11685676Y-12324714D02*
X11695200Y-12305667D01*
X11714248Y-12296143D01*
X11742819Y-12296143D01*
X11761867Y-12305667D01*
X11771390Y-12324714D01*
X11771390Y-12429476D01*
X11866628Y-12429476D02*
X11866628Y-12296143D01*
X11866628Y-12315190D02*
X11876152Y-12305667D01*
X11895200Y-12296143D01*
X11923771Y-12296143D01*
X11942819Y-12305667D01*
X11952343Y-12324714D01*
X11952343Y-12429476D01*
X11952343Y-12324714D02*
X11961867Y-12305667D01*
X11980914Y-12296143D01*
X12009486Y-12296143D01*
X12028533Y-12305667D01*
X12038057Y-12324714D01*
X12038057Y-12429476D01*
X12428533Y-12219952D02*
X12257105Y-12477095D01*
X12685676Y-12229476D02*
X12704724Y-12229476D01*
X12723771Y-12239000D01*
X12733295Y-12248524D01*
X12742819Y-12267571D01*
X12752343Y-12305667D01*
X12752343Y-12353286D01*
X12742819Y-12391381D01*
X12733295Y-12410428D01*
X12723771Y-12419952D01*
X12704724Y-12429476D01*
X12685676Y-12429476D01*
X12666628Y-12419952D01*
X12657105Y-12410428D01*
X12647581Y-12391381D01*
X12638057Y-12353286D01*
X12638057Y-12305667D01*
X12647581Y-12267571D01*
X12657105Y-12248524D01*
X12666628Y-12239000D01*
X12685676Y-12229476D01*
X12838057Y-12410428D02*
X12847581Y-12419952D01*
X12838057Y-12429476D01*
X12828533Y-12419952D01*
X12838057Y-12410428D01*
X12838057Y-12429476D01*
X12971390Y-12229476D02*
X12990438Y-12229476D01*
X13009486Y-12239000D01*
X13019009Y-12248524D01*
X13028533Y-12267571D01*
X13038057Y-12305667D01*
X13038057Y-12353286D01*
X13028533Y-12391381D01*
X13019009Y-12410428D01*
X13009486Y-12419952D01*
X12990438Y-12429476D01*
X12971390Y-12429476D01*
X12952343Y-12419952D01*
X12942819Y-12410428D01*
X12933295Y-12391381D01*
X12923771Y-12353286D01*
X12923771Y-12305667D01*
X12933295Y-12267571D01*
X12942819Y-12248524D01*
X12952343Y-12239000D01*
X12971390Y-12229476D01*
X13104724Y-12229476D02*
X13228533Y-12229476D01*
X13161867Y-12305667D01*
X13190438Y-12305667D01*
X13209486Y-12315190D01*
X13219009Y-12324714D01*
X13228533Y-12343762D01*
X13228533Y-12391381D01*
X13219009Y-12410428D01*
X13209486Y-12419952D01*
X13190438Y-12429476D01*
X13133295Y-12429476D01*
X13114248Y-12419952D01*
X13104724Y-12410428D01*
X13419009Y-12429476D02*
X13304724Y-12429476D01*
X13361867Y-12429476D02*
X13361867Y-12229476D01*
X13342819Y-12258048D01*
X13323771Y-12277095D01*
X13304724Y-12286619D01*
X13599962Y-12229476D02*
X13504724Y-12229476D01*
X13495200Y-12324714D01*
X13504724Y-12315190D01*
X13523771Y-12305667D01*
X13571390Y-12305667D01*
X13590438Y-12315190D01*
X13599962Y-12324714D01*
X13609486Y-12343762D01*
X13609486Y-12391381D01*
X13599962Y-12410428D01*
X13590438Y-12419952D01*
X13571390Y-12429476D01*
X13523771Y-12429476D01*
X13504724Y-12419952D01*
X13495200Y-12410428D01*
X13685676Y-12229476D02*
X13685676Y-12267571D01*
X13761867Y-12229476D02*
X13761867Y-12267571D01*
X14057105Y-12505667D02*
X14047581Y-12496143D01*
X14028533Y-12467571D01*
X14019009Y-12448524D01*
X14009486Y-12419952D01*
X13999962Y-12372333D01*
X13999962Y-12334238D01*
X14009486Y-12286619D01*
X14019009Y-12258048D01*
X14028533Y-12239000D01*
X14047581Y-12210428D01*
X14057105Y-12200905D01*
X14142819Y-12429476D02*
X14180914Y-12429476D01*
X14199962Y-12419952D01*
X14209486Y-12410428D01*
X14228533Y-12381857D01*
X14238057Y-12343762D01*
X14238057Y-12267571D01*
X14228533Y-12248524D01*
X14219009Y-12239000D01*
X14199962Y-12229476D01*
X14161867Y-12229476D01*
X14142819Y-12239000D01*
X14133295Y-12248524D01*
X14123771Y-12267571D01*
X14123771Y-12315190D01*
X14133295Y-12334238D01*
X14142819Y-12343762D01*
X14161867Y-12353286D01*
X14199962Y-12353286D01*
X14219009Y-12343762D01*
X14228533Y-12334238D01*
X14238057Y-12315190D01*
X14361867Y-12229476D02*
X14380914Y-12229476D01*
X14399962Y-12239000D01*
X14409486Y-12248524D01*
X14419009Y-12267571D01*
X14428533Y-12305667D01*
X14428533Y-12353286D01*
X14419009Y-12391381D01*
X14409486Y-12410428D01*
X14399962Y-12419952D01*
X14380914Y-12429476D01*
X14361867Y-12429476D01*
X14342819Y-12419952D01*
X14333295Y-12410428D01*
X14323771Y-12391381D01*
X14314248Y-12353286D01*
X14314248Y-12305667D01*
X14323771Y-12267571D01*
X14333295Y-12248524D01*
X14342819Y-12239000D01*
X14361867Y-12229476D01*
X14666628Y-12429476D02*
X14666628Y-12229476D01*
X14752343Y-12429476D02*
X14752343Y-12324714D01*
X14742819Y-12305667D01*
X14723771Y-12296143D01*
X14695200Y-12296143D01*
X14676152Y-12305667D01*
X14666628Y-12315190D01*
X14876152Y-12429476D02*
X14857105Y-12419952D01*
X14847581Y-12410428D01*
X14838057Y-12391381D01*
X14838057Y-12334238D01*
X14847581Y-12315190D01*
X14857105Y-12305667D01*
X14876152Y-12296143D01*
X14904724Y-12296143D01*
X14923771Y-12305667D01*
X14933295Y-12315190D01*
X14942819Y-12334238D01*
X14942819Y-12391381D01*
X14933295Y-12410428D01*
X14923771Y-12419952D01*
X14904724Y-12429476D01*
X14876152Y-12429476D01*
X15057105Y-12429476D02*
X15038057Y-12419952D01*
X15028533Y-12400905D01*
X15028533Y-12229476D01*
X15209486Y-12419952D02*
X15190438Y-12429476D01*
X15152343Y-12429476D01*
X15133295Y-12419952D01*
X15123771Y-12400905D01*
X15123771Y-12324714D01*
X15133295Y-12305667D01*
X15152343Y-12296143D01*
X15190438Y-12296143D01*
X15209486Y-12305667D01*
X15219009Y-12324714D01*
X15219009Y-12343762D01*
X15123771Y-12362809D01*
X15295200Y-12419952D02*
X15314248Y-12429476D01*
X15352343Y-12429476D01*
X15371390Y-12419952D01*
X15380914Y-12400905D01*
X15380914Y-12391381D01*
X15371390Y-12372333D01*
X15352343Y-12362809D01*
X15323771Y-12362809D01*
X15304724Y-12353286D01*
X15295200Y-12334238D01*
X15295200Y-12324714D01*
X15304724Y-12305667D01*
X15323771Y-12296143D01*
X15352343Y-12296143D01*
X15371390Y-12305667D01*
X15447581Y-12505667D02*
X15457105Y-12496143D01*
X15476152Y-12467571D01*
X15485676Y-12448524D01*
X15495200Y-12419952D01*
X15504724Y-12372333D01*
X15504724Y-12334238D01*
X15495200Y-12286619D01*
X15485676Y-12258048D01*
X15476152Y-12239000D01*
X15457105Y-12210428D01*
X15447581Y-12200905D01*
D14*
X10435200Y-12553000D02*
X10435200Y-12653000D01*
X10385200Y-12603000D02*
X10485200Y-12603000D01*
D11*
X10847581Y-12693476D02*
X10733295Y-12693476D01*
X10790438Y-12693476D02*
X10790438Y-12493476D01*
X10771390Y-12522048D01*
X10752343Y-12541095D01*
X10733295Y-12550619D01*
X10933295Y-12674428D02*
X10942819Y-12683952D01*
X10933295Y-12693476D01*
X10923771Y-12683952D01*
X10933295Y-12674428D01*
X10933295Y-12693476D01*
X11066629Y-12493476D02*
X11085676Y-12493476D01*
X11104724Y-12503000D01*
X11114248Y-12512524D01*
X11123771Y-12531571D01*
X11133295Y-12569667D01*
X11133295Y-12617286D01*
X11123771Y-12655381D01*
X11114248Y-12674428D01*
X11104724Y-12683952D01*
X11085676Y-12693476D01*
X11066629Y-12693476D01*
X11047581Y-12683952D01*
X11038057Y-12674428D01*
X11028533Y-12655381D01*
X11019010Y-12617286D01*
X11019010Y-12569667D01*
X11028533Y-12531571D01*
X11038057Y-12512524D01*
X11047581Y-12503000D01*
X11066629Y-12493476D01*
X11257105Y-12493476D02*
X11276152Y-12493476D01*
X11295200Y-12503000D01*
X11304724Y-12512524D01*
X11314248Y-12531571D01*
X11323771Y-12569667D01*
X11323771Y-12617286D01*
X11314248Y-12655381D01*
X11304724Y-12674428D01*
X11295200Y-12683952D01*
X11276152Y-12693476D01*
X11257105Y-12693476D01*
X11238057Y-12683952D01*
X11228533Y-12674428D01*
X11219009Y-12655381D01*
X11209486Y-12617286D01*
X11209486Y-12569667D01*
X11219009Y-12531571D01*
X11228533Y-12512524D01*
X11238057Y-12503000D01*
X11257105Y-12493476D01*
X11447581Y-12493476D02*
X11466628Y-12493476D01*
X11485676Y-12503000D01*
X11495200Y-12512524D01*
X11504724Y-12531571D01*
X11514248Y-12569667D01*
X11514248Y-12617286D01*
X11504724Y-12655381D01*
X11495200Y-12674428D01*
X11485676Y-12683952D01*
X11466628Y-12693476D01*
X11447581Y-12693476D01*
X11428533Y-12683952D01*
X11419009Y-12674428D01*
X11409486Y-12655381D01*
X11399962Y-12617286D01*
X11399962Y-12569667D01*
X11409486Y-12531571D01*
X11419009Y-12512524D01*
X11428533Y-12503000D01*
X11447581Y-12493476D01*
X11599962Y-12693476D02*
X11599962Y-12560143D01*
X11599962Y-12579190D02*
X11609486Y-12569667D01*
X11628533Y-12560143D01*
X11657105Y-12560143D01*
X11676152Y-12569667D01*
X11685676Y-12588714D01*
X11685676Y-12693476D01*
X11685676Y-12588714D02*
X11695200Y-12569667D01*
X11714248Y-12560143D01*
X11742819Y-12560143D01*
X11761867Y-12569667D01*
X11771390Y-12588714D01*
X11771390Y-12693476D01*
X11866628Y-12693476D02*
X11866628Y-12560143D01*
X11866628Y-12579190D02*
X11876152Y-12569667D01*
X11895200Y-12560143D01*
X11923771Y-12560143D01*
X11942819Y-12569667D01*
X11952343Y-12588714D01*
X11952343Y-12693476D01*
X11952343Y-12588714D02*
X11961867Y-12569667D01*
X11980914Y-12560143D01*
X12009486Y-12560143D01*
X12028533Y-12569667D01*
X12038057Y-12588714D01*
X12038057Y-12693476D01*
X12428533Y-12483952D02*
X12257105Y-12741095D01*
X12685676Y-12493476D02*
X12704724Y-12493476D01*
X12723771Y-12503000D01*
X12733295Y-12512524D01*
X12742819Y-12531571D01*
X12752343Y-12569667D01*
X12752343Y-12617286D01*
X12742819Y-12655381D01*
X12733295Y-12674428D01*
X12723771Y-12683952D01*
X12704724Y-12693476D01*
X12685676Y-12693476D01*
X12666628Y-12683952D01*
X12657105Y-12674428D01*
X12647581Y-12655381D01*
X12638057Y-12617286D01*
X12638057Y-12569667D01*
X12647581Y-12531571D01*
X12657105Y-12512524D01*
X12666628Y-12503000D01*
X12685676Y-12493476D01*
X12838057Y-12674428D02*
X12847581Y-12683952D01*
X12838057Y-12693476D01*
X12828533Y-12683952D01*
X12838057Y-12674428D01*
X12838057Y-12693476D01*
X12971390Y-12493476D02*
X12990438Y-12493476D01*
X13009486Y-12503000D01*
X13019009Y-12512524D01*
X13028533Y-12531571D01*
X13038057Y-12569667D01*
X13038057Y-12617286D01*
X13028533Y-12655381D01*
X13019009Y-12674428D01*
X13009486Y-12683952D01*
X12990438Y-12693476D01*
X12971390Y-12693476D01*
X12952343Y-12683952D01*
X12942819Y-12674428D01*
X12933295Y-12655381D01*
X12923771Y-12617286D01*
X12923771Y-12569667D01*
X12933295Y-12531571D01*
X12942819Y-12512524D01*
X12952343Y-12503000D01*
X12971390Y-12493476D01*
X13104724Y-12493476D02*
X13228533Y-12493476D01*
X13161867Y-12569667D01*
X13190438Y-12569667D01*
X13209486Y-12579190D01*
X13219009Y-12588714D01*
X13228533Y-12607762D01*
X13228533Y-12655381D01*
X13219009Y-12674428D01*
X13209486Y-12683952D01*
X13190438Y-12693476D01*
X13133295Y-12693476D01*
X13114248Y-12683952D01*
X13104724Y-12674428D01*
X13323771Y-12693476D02*
X13361867Y-12693476D01*
X13380914Y-12683952D01*
X13390438Y-12674428D01*
X13409486Y-12645857D01*
X13419009Y-12607762D01*
X13419009Y-12531571D01*
X13409486Y-12512524D01*
X13399962Y-12503000D01*
X13380914Y-12493476D01*
X13342819Y-12493476D01*
X13323771Y-12503000D01*
X13314248Y-12512524D01*
X13304724Y-12531571D01*
X13304724Y-12579190D01*
X13314248Y-12598238D01*
X13323771Y-12607762D01*
X13342819Y-12617286D01*
X13380914Y-12617286D01*
X13399962Y-12607762D01*
X13409486Y-12598238D01*
X13419009Y-12579190D01*
X13590438Y-12560143D02*
X13590438Y-12693476D01*
X13542819Y-12483952D02*
X13495200Y-12626809D01*
X13619009Y-12626809D01*
X13685676Y-12493476D02*
X13685676Y-12531571D01*
X13761867Y-12493476D02*
X13761867Y-12531571D01*
X14057105Y-12769667D02*
X14047581Y-12760143D01*
X14028533Y-12731571D01*
X14019009Y-12712524D01*
X14009486Y-12683952D01*
X13999962Y-12636333D01*
X13999962Y-12598238D01*
X14009486Y-12550619D01*
X14019009Y-12522048D01*
X14028533Y-12503000D01*
X14047581Y-12474428D01*
X14057105Y-12464905D01*
X14142819Y-12693476D02*
X14180914Y-12693476D01*
X14199962Y-12683952D01*
X14209486Y-12674428D01*
X14228533Y-12645857D01*
X14238057Y-12607762D01*
X14238057Y-12531571D01*
X14228533Y-12512524D01*
X14219009Y-12503000D01*
X14199962Y-12493476D01*
X14161867Y-12493476D01*
X14142819Y-12503000D01*
X14133295Y-12512524D01*
X14123771Y-12531571D01*
X14123771Y-12579190D01*
X14133295Y-12598238D01*
X14142819Y-12607762D01*
X14161867Y-12617286D01*
X14199962Y-12617286D01*
X14219009Y-12607762D01*
X14228533Y-12598238D01*
X14238057Y-12579190D01*
X14476152Y-12693476D02*
X14476152Y-12493476D01*
X14561867Y-12693476D02*
X14561867Y-12588714D01*
X14552343Y-12569667D01*
X14533295Y-12560143D01*
X14504724Y-12560143D01*
X14485676Y-12569667D01*
X14476152Y-12579190D01*
X14685676Y-12693476D02*
X14666628Y-12683952D01*
X14657105Y-12674428D01*
X14647581Y-12655381D01*
X14647581Y-12598238D01*
X14657105Y-12579190D01*
X14666628Y-12569667D01*
X14685676Y-12560143D01*
X14714248Y-12560143D01*
X14733295Y-12569667D01*
X14742819Y-12579190D01*
X14752343Y-12598238D01*
X14752343Y-12655381D01*
X14742819Y-12674428D01*
X14733295Y-12683952D01*
X14714248Y-12693476D01*
X14685676Y-12693476D01*
X14866628Y-12693476D02*
X14847581Y-12683952D01*
X14838057Y-12664905D01*
X14838057Y-12493476D01*
X15019009Y-12683952D02*
X14999962Y-12693476D01*
X14961867Y-12693476D01*
X14942819Y-12683952D01*
X14933295Y-12664905D01*
X14933295Y-12588714D01*
X14942819Y-12569667D01*
X14961867Y-12560143D01*
X14999962Y-12560143D01*
X15019009Y-12569667D01*
X15028533Y-12588714D01*
X15028533Y-12607762D01*
X14933295Y-12626809D01*
X15104724Y-12683952D02*
X15123771Y-12693476D01*
X15161867Y-12693476D01*
X15180914Y-12683952D01*
X15190438Y-12664905D01*
X15190438Y-12655381D01*
X15180914Y-12636333D01*
X15161867Y-12626809D01*
X15133295Y-12626809D01*
X15114248Y-12617286D01*
X15104724Y-12598238D01*
X15104724Y-12588714D01*
X15114248Y-12569667D01*
X15133295Y-12560143D01*
X15161867Y-12560143D01*
X15180914Y-12569667D01*
X15257105Y-12769667D02*
X15266628Y-12760143D01*
X15285676Y-12731571D01*
X15295200Y-12712524D01*
X15304724Y-12683952D01*
X15314248Y-12636333D01*
X15314248Y-12598238D01*
X15304724Y-12550619D01*
X15295200Y-12522048D01*
X15285676Y-12503000D01*
X15266628Y-12474428D01*
X15257105Y-12464905D01*
M02*
