G04 #@! TF.GenerationSoftware,KiCad,Pcbnew,(6.0.5)*
G04 #@! TF.CreationDate,2023-11-13T21:27:11+01:00*
G04 #@! TF.ProjectId,kicad-c128-byte-wide-color-ram,6b696361-642d-4633-9132-382d62797465,1.1*
G04 #@! TF.SameCoordinates,Original*
G04 #@! TF.FileFunction,Legend,Top*
G04 #@! TF.FilePolarity,Positive*
%FSLAX46Y46*%
G04 Gerber Fmt 4.6, Leading zero omitted, Abs format (unit mm)*
G04 Created by KiCad (PCBNEW (6.0.5)) date 2023-11-13 21:27:11*
%MOMM*%
%LPD*%
G01*
G04 APERTURE LIST*
%ADD10C,0.100000*%
%ADD11C,0.150000*%
%ADD12C,0.120000*%
%ADD13R,1.600000X1.600000*%
%ADD14O,1.600000X1.600000*%
%ADD15R,1.700000X1.700000*%
%ADD16O,1.700000X1.700000*%
G04 APERTURE END LIST*
D10*
X116474142Y-82474571D02*
X116450333Y-82498380D01*
X116378904Y-82522190D01*
X116331285Y-82522190D01*
X116259857Y-82498380D01*
X116212238Y-82450761D01*
X116188428Y-82403142D01*
X116164619Y-82307904D01*
X116164619Y-82236476D01*
X116188428Y-82141238D01*
X116212238Y-82093619D01*
X116259857Y-82046000D01*
X116331285Y-82022190D01*
X116378904Y-82022190D01*
X116450333Y-82046000D01*
X116474142Y-82069809D01*
X116759857Y-82522190D02*
X116712238Y-82498380D01*
X116688428Y-82474571D01*
X116664619Y-82426952D01*
X116664619Y-82284095D01*
X116688428Y-82236476D01*
X116712238Y-82212666D01*
X116759857Y-82188857D01*
X116831285Y-82188857D01*
X116878904Y-82212666D01*
X116902714Y-82236476D01*
X116926523Y-82284095D01*
X116926523Y-82426952D01*
X116902714Y-82474571D01*
X116878904Y-82498380D01*
X116831285Y-82522190D01*
X116759857Y-82522190D01*
X117212238Y-82522190D02*
X117164619Y-82498380D01*
X117140809Y-82450761D01*
X117140809Y-82022190D01*
X117474142Y-82522190D02*
X117426523Y-82498380D01*
X117402714Y-82474571D01*
X117378904Y-82426952D01*
X117378904Y-82284095D01*
X117402714Y-82236476D01*
X117426523Y-82212666D01*
X117474142Y-82188857D01*
X117545571Y-82188857D01*
X117593190Y-82212666D01*
X117617000Y-82236476D01*
X117640809Y-82284095D01*
X117640809Y-82426952D01*
X117617000Y-82474571D01*
X117593190Y-82498380D01*
X117545571Y-82522190D01*
X117474142Y-82522190D01*
X117855095Y-82522190D02*
X117855095Y-82188857D01*
X117855095Y-82284095D02*
X117878904Y-82236476D01*
X117902714Y-82212666D01*
X117950333Y-82188857D01*
X117997952Y-82188857D01*
X118831285Y-82522190D02*
X118664619Y-82284095D01*
X118545571Y-82522190D02*
X118545571Y-82022190D01*
X118736047Y-82022190D01*
X118783666Y-82046000D01*
X118807476Y-82069809D01*
X118831285Y-82117428D01*
X118831285Y-82188857D01*
X118807476Y-82236476D01*
X118783666Y-82260285D01*
X118736047Y-82284095D01*
X118545571Y-82284095D01*
X119021761Y-82379333D02*
X119259857Y-82379333D01*
X118974142Y-82522190D02*
X119140809Y-82022190D01*
X119307476Y-82522190D01*
X119474142Y-82522190D02*
X119474142Y-82022190D01*
X119640809Y-82379333D01*
X119807476Y-82022190D01*
X119807476Y-82522190D01*
X120426523Y-82188857D02*
X120426523Y-82688857D01*
X120426523Y-82212666D02*
X120474142Y-82188857D01*
X120569380Y-82188857D01*
X120617000Y-82212666D01*
X120640809Y-82236476D01*
X120664619Y-82284095D01*
X120664619Y-82426952D01*
X120640809Y-82474571D01*
X120617000Y-82498380D01*
X120569380Y-82522190D01*
X120474142Y-82522190D01*
X120426523Y-82498380D01*
X120878904Y-82522190D02*
X120878904Y-82188857D01*
X120878904Y-82022190D02*
X120855095Y-82046000D01*
X120878904Y-82069809D01*
X120902714Y-82046000D01*
X120878904Y-82022190D01*
X120878904Y-82069809D01*
X121117000Y-82188857D02*
X121117000Y-82522190D01*
X121117000Y-82236476D02*
X121140809Y-82212666D01*
X121188428Y-82188857D01*
X121259857Y-82188857D01*
X121307476Y-82212666D01*
X121331285Y-82260285D01*
X121331285Y-82522190D01*
X121545571Y-82498380D02*
X121593190Y-82522190D01*
X121688428Y-82522190D01*
X121736047Y-82498380D01*
X121759857Y-82450761D01*
X121759857Y-82426952D01*
X121736047Y-82379333D01*
X121688428Y-82355523D01*
X121617000Y-82355523D01*
X121569380Y-82331714D01*
X121545571Y-82284095D01*
X121545571Y-82260285D01*
X121569380Y-82212666D01*
X121617000Y-82188857D01*
X121688428Y-82188857D01*
X121736047Y-82212666D01*
X122307476Y-82188857D02*
X122426523Y-82522190D01*
X122545571Y-82188857D01*
X113595000Y-78886857D02*
X113214047Y-79029714D01*
X113595000Y-79172571D01*
X113833095Y-79029714D02*
X114214047Y-79029714D01*
X114785476Y-78720190D02*
X115095000Y-78720190D01*
X114928333Y-78910666D01*
X114999761Y-78910666D01*
X115047380Y-78934476D01*
X115071190Y-78958285D01*
X115095000Y-79005904D01*
X115095000Y-79124952D01*
X115071190Y-79172571D01*
X115047380Y-79196380D01*
X114999761Y-79220190D01*
X114856904Y-79220190D01*
X114809285Y-79196380D01*
X114785476Y-79172571D01*
X115285476Y-78767809D02*
X115309285Y-78744000D01*
X115356904Y-78720190D01*
X115475952Y-78720190D01*
X115523571Y-78744000D01*
X115547380Y-78767809D01*
X115571190Y-78815428D01*
X115571190Y-78863047D01*
X115547380Y-78934476D01*
X115261666Y-79220190D01*
X115571190Y-79220190D01*
X115785476Y-79220190D02*
X115785476Y-78720190D01*
X116071190Y-79220190D02*
X115856904Y-78934476D01*
X116071190Y-78720190D02*
X115785476Y-79005904D01*
X116642619Y-79196380D02*
X116690238Y-79220190D01*
X116785476Y-79220190D01*
X116833095Y-79196380D01*
X116856904Y-79148761D01*
X116856904Y-79124952D01*
X116833095Y-79077333D01*
X116785476Y-79053523D01*
X116714047Y-79053523D01*
X116666428Y-79029714D01*
X116642619Y-78982095D01*
X116642619Y-78958285D01*
X116666428Y-78910666D01*
X116714047Y-78886857D01*
X116785476Y-78886857D01*
X116833095Y-78910666D01*
X117142619Y-79220190D02*
X117095000Y-79196380D01*
X117071190Y-79172571D01*
X117047380Y-79124952D01*
X117047380Y-78982095D01*
X117071190Y-78934476D01*
X117095000Y-78910666D01*
X117142619Y-78886857D01*
X117214047Y-78886857D01*
X117261666Y-78910666D01*
X117285476Y-78934476D01*
X117309285Y-78982095D01*
X117309285Y-79124952D01*
X117285476Y-79172571D01*
X117261666Y-79196380D01*
X117214047Y-79220190D01*
X117142619Y-79220190D01*
X117737857Y-79196380D02*
X117690238Y-79220190D01*
X117595000Y-79220190D01*
X117547380Y-79196380D01*
X117523571Y-79172571D01*
X117499761Y-79124952D01*
X117499761Y-78982095D01*
X117523571Y-78934476D01*
X117547380Y-78910666D01*
X117595000Y-78886857D01*
X117690238Y-78886857D01*
X117737857Y-78910666D01*
X117952142Y-79220190D02*
X117952142Y-78720190D01*
X117999761Y-79029714D02*
X118142619Y-79220190D01*
X118142619Y-78886857D02*
X117952142Y-79077333D01*
X118547380Y-79196380D02*
X118499761Y-79220190D01*
X118404523Y-79220190D01*
X118356904Y-79196380D01*
X118333095Y-79148761D01*
X118333095Y-78958285D01*
X118356904Y-78910666D01*
X118404523Y-78886857D01*
X118499761Y-78886857D01*
X118547380Y-78910666D01*
X118571190Y-78958285D01*
X118571190Y-79005904D01*
X118333095Y-79053523D01*
X118714047Y-78886857D02*
X118904523Y-78886857D01*
X118785476Y-78720190D02*
X118785476Y-79148761D01*
X118809285Y-79196380D01*
X118856904Y-79220190D01*
X118904523Y-79220190D01*
D11*
X110296900Y-72113000D02*
X109763566Y-72313000D01*
X110296900Y-72513000D01*
X110630233Y-72313000D02*
X111163566Y-72313000D01*
X111996900Y-72379666D02*
X112330233Y-72379666D01*
X111930233Y-72579666D02*
X112163566Y-71879666D01*
X112396900Y-72579666D01*
X112996900Y-72579666D02*
X112596900Y-72579666D01*
X112796900Y-72579666D02*
X112796900Y-71879666D01*
X112730233Y-71979666D01*
X112663566Y-72046333D01*
X112596900Y-72079666D01*
X113663566Y-72579666D02*
X113263566Y-72579666D01*
X113463566Y-72579666D02*
X113463566Y-71879666D01*
X113396900Y-71979666D01*
X113330233Y-72046333D01*
X113263566Y-72079666D01*
X113796900Y-72646333D02*
X114330233Y-72646333D01*
X114463566Y-72379666D02*
X114796900Y-72379666D01*
X114396900Y-72579666D02*
X114630233Y-71879666D01*
X114863566Y-72579666D01*
X115463566Y-72579666D02*
X115063566Y-72579666D01*
X115263566Y-72579666D02*
X115263566Y-71879666D01*
X115196900Y-71979666D01*
X115130233Y-72046333D01*
X115063566Y-72079666D01*
X116063566Y-72113000D02*
X116063566Y-72579666D01*
X115896900Y-71846333D02*
X115730233Y-72346333D01*
X116163566Y-72346333D01*
D10*
X114355380Y-81307809D02*
X114379190Y-81284000D01*
X114426809Y-81260190D01*
X114545857Y-81260190D01*
X114593476Y-81284000D01*
X114617285Y-81307809D01*
X114641095Y-81355428D01*
X114641095Y-81403047D01*
X114617285Y-81474476D01*
X114331571Y-81760190D01*
X114641095Y-81760190D01*
X114855380Y-81760190D02*
X114855380Y-81260190D01*
X115141095Y-81760190D02*
X114926809Y-81474476D01*
X115141095Y-81260190D02*
X114855380Y-81545904D01*
X115712523Y-81736380D02*
X115760142Y-81760190D01*
X115855380Y-81760190D01*
X115903000Y-81736380D01*
X115926809Y-81688761D01*
X115926809Y-81664952D01*
X115903000Y-81617333D01*
X115855380Y-81593523D01*
X115783952Y-81593523D01*
X115736333Y-81569714D01*
X115712523Y-81522095D01*
X115712523Y-81498285D01*
X115736333Y-81450666D01*
X115783952Y-81426857D01*
X115855380Y-81426857D01*
X115903000Y-81450666D01*
X116212523Y-81760190D02*
X116164904Y-81736380D01*
X116141095Y-81712571D01*
X116117285Y-81664952D01*
X116117285Y-81522095D01*
X116141095Y-81474476D01*
X116164904Y-81450666D01*
X116212523Y-81426857D01*
X116283952Y-81426857D01*
X116331571Y-81450666D01*
X116355380Y-81474476D01*
X116379190Y-81522095D01*
X116379190Y-81664952D01*
X116355380Y-81712571D01*
X116331571Y-81736380D01*
X116283952Y-81760190D01*
X116212523Y-81760190D01*
X116807761Y-81736380D02*
X116760142Y-81760190D01*
X116664904Y-81760190D01*
X116617285Y-81736380D01*
X116593476Y-81712571D01*
X116569666Y-81664952D01*
X116569666Y-81522095D01*
X116593476Y-81474476D01*
X116617285Y-81450666D01*
X116664904Y-81426857D01*
X116760142Y-81426857D01*
X116807761Y-81450666D01*
X117022047Y-81760190D02*
X117022047Y-81260190D01*
X117069666Y-81569714D02*
X117212523Y-81760190D01*
X117212523Y-81426857D02*
X117022047Y-81617333D01*
X117617285Y-81736380D02*
X117569666Y-81760190D01*
X117474428Y-81760190D01*
X117426809Y-81736380D01*
X117403000Y-81688761D01*
X117403000Y-81498285D01*
X117426809Y-81450666D01*
X117474428Y-81426857D01*
X117569666Y-81426857D01*
X117617285Y-81450666D01*
X117641095Y-81498285D01*
X117641095Y-81545904D01*
X117403000Y-81593523D01*
X117783952Y-81426857D02*
X117974428Y-81426857D01*
X117855380Y-81260190D02*
X117855380Y-81688761D01*
X117879190Y-81736380D01*
X117926809Y-81760190D01*
X117974428Y-81760190D01*
X118879190Y-81236380D02*
X118450619Y-81879238D01*
X119688714Y-81760190D02*
X119403000Y-81760190D01*
X119545857Y-81760190D02*
X119545857Y-81260190D01*
X119498238Y-81331619D01*
X119450619Y-81379238D01*
X119403000Y-81403047D01*
X120141095Y-81260190D02*
X119903000Y-81260190D01*
X119879190Y-81498285D01*
X119903000Y-81474476D01*
X119950619Y-81450666D01*
X120069666Y-81450666D01*
X120117285Y-81474476D01*
X120141095Y-81498285D01*
X120164904Y-81545904D01*
X120164904Y-81664952D01*
X120141095Y-81712571D01*
X120117285Y-81736380D01*
X120069666Y-81760190D01*
X119950619Y-81760190D01*
X119903000Y-81736380D01*
X119879190Y-81712571D01*
X120331571Y-81260190D02*
X120664904Y-81260190D01*
X120450619Y-81760190D01*
X121117285Y-81760190D02*
X120831571Y-81760190D01*
X120974428Y-81760190D02*
X120974428Y-81260190D01*
X120926809Y-81331619D01*
X120879190Y-81379238D01*
X120831571Y-81403047D01*
X121617285Y-81712571D02*
X121593476Y-81736380D01*
X121522047Y-81760190D01*
X121474428Y-81760190D01*
X121402999Y-81736380D01*
X121355380Y-81688761D01*
X121331571Y-81641142D01*
X121307761Y-81545904D01*
X121307761Y-81474476D01*
X121331571Y-81379238D01*
X121355380Y-81331619D01*
X121402999Y-81284000D01*
X121474428Y-81260190D01*
X121522047Y-81260190D01*
X121593476Y-81284000D01*
X121617285Y-81307809D01*
X122117285Y-81760190D02*
X121950619Y-81522095D01*
X121831571Y-81760190D02*
X121831571Y-81260190D01*
X122022047Y-81260190D01*
X122069666Y-81284000D01*
X122093476Y-81307809D01*
X122117285Y-81355428D01*
X122117285Y-81426857D01*
X122093476Y-81474476D01*
X122069666Y-81498285D01*
X122022047Y-81522095D01*
X121831571Y-81522095D01*
X122712523Y-81426857D02*
X122712523Y-81926857D01*
X122712523Y-81450666D02*
X122760142Y-81426857D01*
X122855380Y-81426857D01*
X122902999Y-81450666D01*
X122926809Y-81474476D01*
X122950619Y-81522095D01*
X122950619Y-81664952D01*
X122926809Y-81712571D01*
X122902999Y-81736380D01*
X122855380Y-81760190D01*
X122760142Y-81760190D01*
X122712523Y-81736380D01*
X123164904Y-81760190D02*
X123164904Y-81426857D01*
X123164904Y-81260190D02*
X123141095Y-81284000D01*
X123164904Y-81307809D01*
X123188714Y-81284000D01*
X123164904Y-81260190D01*
X123164904Y-81307809D01*
X123403000Y-81426857D02*
X123403000Y-81760190D01*
X123403000Y-81474476D02*
X123426809Y-81450666D01*
X123474428Y-81426857D01*
X123545857Y-81426857D01*
X123593476Y-81450666D01*
X123617285Y-81498285D01*
X123617285Y-81760190D01*
X123831571Y-81736380D02*
X123879190Y-81760190D01*
X123974428Y-81760190D01*
X124022047Y-81736380D01*
X124045857Y-81688761D01*
X124045857Y-81664952D01*
X124022047Y-81617333D01*
X123974428Y-81593523D01*
X123902999Y-81593523D01*
X123855380Y-81569714D01*
X123831571Y-81522095D01*
X123831571Y-81498285D01*
X123855380Y-81450666D01*
X123902999Y-81426857D01*
X123974428Y-81426857D01*
X124022047Y-81450666D01*
X124593476Y-81426857D02*
X124712523Y-81760190D01*
X124831571Y-81426857D01*
D11*
X124933285Y-71024904D02*
X124266619Y-71024904D01*
X125314238Y-70786809D02*
X124599952Y-70548714D01*
X124599952Y-71167761D01*
X125266619Y-71739190D02*
X125266619Y-71834428D01*
X125219000Y-71929666D01*
X125171380Y-71977285D01*
X125076142Y-72024904D01*
X124885666Y-72072523D01*
X124647571Y-72072523D01*
X124457095Y-72024904D01*
X124361857Y-71977285D01*
X124314238Y-71929666D01*
X124266619Y-71834428D01*
X124266619Y-71739190D01*
X124314238Y-71643952D01*
X124361857Y-71596333D01*
X124457095Y-71548714D01*
X124647571Y-71501095D01*
X124885666Y-71501095D01*
X125076142Y-71548714D01*
X125171380Y-71596333D01*
X125219000Y-71643952D01*
X125266619Y-71739190D01*
X125266619Y-72929666D02*
X125266619Y-72739190D01*
X125219000Y-72643952D01*
X125171380Y-72596333D01*
X125028523Y-72501095D01*
X124838047Y-72453476D01*
X124457095Y-72453476D01*
X124361857Y-72501095D01*
X124314238Y-72548714D01*
X124266619Y-72643952D01*
X124266619Y-72834428D01*
X124314238Y-72929666D01*
X124361857Y-72977285D01*
X124457095Y-73024904D01*
X124695190Y-73024904D01*
X124790428Y-72977285D01*
X124838047Y-72929666D01*
X124885666Y-72834428D01*
X124885666Y-72643952D01*
X124838047Y-72548714D01*
X124790428Y-72501095D01*
X124695190Y-72453476D01*
X125266619Y-73882047D02*
X125266619Y-73691571D01*
X125219000Y-73596333D01*
X125171380Y-73548714D01*
X125028523Y-73453476D01*
X124838047Y-73405857D01*
X124457095Y-73405857D01*
X124361857Y-73453476D01*
X124314238Y-73501095D01*
X124266619Y-73596333D01*
X124266619Y-73786809D01*
X124314238Y-73882047D01*
X124361857Y-73929666D01*
X124457095Y-73977285D01*
X124695190Y-73977285D01*
X124790428Y-73929666D01*
X124838047Y-73882047D01*
X124885666Y-73786809D01*
X124885666Y-73596333D01*
X124838047Y-73501095D01*
X124790428Y-73453476D01*
X124695190Y-73405857D01*
X117510500Y-65102600D02*
X116977166Y-65302600D01*
X117510500Y-65502600D01*
X117843833Y-65302600D02*
X118377166Y-65302600D01*
X119243833Y-65569266D02*
X119243833Y-64869266D01*
X119410500Y-64869266D01*
X119510500Y-64902600D01*
X119577166Y-64969266D01*
X119610500Y-65035933D01*
X119643833Y-65169266D01*
X119643833Y-65269266D01*
X119610500Y-65402600D01*
X119577166Y-65469266D01*
X119510500Y-65535933D01*
X119410500Y-65569266D01*
X119243833Y-65569266D01*
X120243833Y-65102600D02*
X120243833Y-65569266D01*
X120077166Y-64835933D02*
X119910500Y-65335933D01*
X120343833Y-65335933D01*
X120443833Y-65635933D02*
X120977166Y-65635933D01*
X121143833Y-65569266D02*
X121143833Y-64869266D01*
X121310500Y-64869266D01*
X121410500Y-64902600D01*
X121477166Y-64969266D01*
X121510500Y-65035933D01*
X121543833Y-65169266D01*
X121543833Y-65269266D01*
X121510500Y-65402600D01*
X121477166Y-65469266D01*
X121410500Y-65535933D01*
X121310500Y-65569266D01*
X121143833Y-65569266D01*
X121777166Y-64869266D02*
X122243833Y-64869266D01*
X121943833Y-65569266D01*
X109565266Y-81198933D02*
X109565266Y-80865600D01*
X109765266Y-81265600D02*
X109065266Y-81032266D01*
X109765266Y-80798933D01*
X109398600Y-80565600D02*
X109398600Y-80332266D01*
X109765266Y-80232266D02*
X109765266Y-80565600D01*
X109065266Y-80565600D01*
X109065266Y-80232266D01*
X109698600Y-79532266D02*
X109731933Y-79565600D01*
X109765266Y-79665600D01*
X109765266Y-79732266D01*
X109731933Y-79832266D01*
X109665266Y-79898933D01*
X109598600Y-79932266D01*
X109465266Y-79965600D01*
X109365266Y-79965600D01*
X109231933Y-79932266D01*
X109165266Y-79898933D01*
X109098600Y-79832266D01*
X109065266Y-79732266D01*
X109065266Y-79665600D01*
X109098600Y-79565600D01*
X109131933Y-79532266D01*
D12*
X127887000Y-67123000D02*
X109867000Y-67123000D01*
X127827000Y-74913000D02*
X127827000Y-73263000D01*
X127887000Y-77403000D02*
X127887000Y-67123000D01*
X109867000Y-77403000D02*
X127887000Y-77403000D01*
X109927000Y-69613000D02*
X109927000Y-74913000D01*
X109927000Y-74913000D02*
X127827000Y-74913000D01*
X109867000Y-67123000D02*
X109867000Y-77403000D01*
X127827000Y-71263000D02*
X127827000Y-69613000D01*
X127827000Y-69613000D02*
X109927000Y-69613000D01*
X127827000Y-71263000D02*
G75*
G03*
X127827000Y-73263000I0J-1000000D01*
G01*
X108264000Y-67494000D02*
X105604000Y-67494000D01*
X108264000Y-76444000D02*
X108264000Y-77774000D01*
X108264000Y-75174000D02*
X108264000Y-67494000D01*
X108264000Y-75174000D02*
X105604000Y-75174000D01*
X108264000Y-77774000D02*
X106934000Y-77774000D01*
X105604000Y-75174000D02*
X105604000Y-67494000D01*
X105614000Y-66354000D02*
X105614000Y-65024000D01*
X106944000Y-66354000D02*
X105614000Y-66354000D01*
X115894000Y-66354000D02*
X115894000Y-63694000D01*
X108214000Y-63694000D02*
X115894000Y-63694000D01*
X108214000Y-66354000D02*
X108214000Y-63694000D01*
X108214000Y-66354000D02*
X115894000Y-66354000D01*
X108264000Y-81534000D02*
X108264000Y-81594000D01*
X105604000Y-81534000D02*
X108264000Y-81534000D01*
X105604000Y-81534000D02*
X105604000Y-81594000D01*
X105604000Y-80264000D02*
X105604000Y-78934000D01*
X105604000Y-78934000D02*
X106934000Y-78934000D01*
X105604000Y-81594000D02*
X108264000Y-81594000D01*
X110639000Y-113598000D02*
X116099000Y-113598000D01*
X118099000Y-113598000D02*
X123559000Y-113598000D01*
X110639000Y-82998000D02*
X110639000Y-113598000D01*
X123559000Y-113598000D02*
X123559000Y-82998000D01*
X123559000Y-82998000D02*
X110639000Y-82998000D01*
X118099000Y-113598000D02*
G75*
G03*
X116099000Y-113598000I-1000000J0D01*
G01*
X121273000Y-82998000D02*
X108353000Y-82998000D01*
X108353000Y-82998000D02*
X108353000Y-113598000D01*
X115813000Y-113598000D02*
X121273000Y-113598000D01*
X121273000Y-113598000D02*
X121273000Y-82998000D01*
X108353000Y-113598000D02*
X113813000Y-113598000D01*
X115813000Y-113598000D02*
G75*
G03*
X113813000Y-113598000I-1000000J0D01*
G01*
X125850000Y-77908000D02*
X112930000Y-77908000D01*
X112930000Y-77908000D02*
X112930000Y-113588000D01*
X125850000Y-113588000D02*
X125850000Y-77908000D01*
X112930000Y-113588000D02*
X118390000Y-113588000D01*
X120390000Y-113588000D02*
X125850000Y-113588000D01*
X120390000Y-113588000D02*
G75*
G03*
X118390000Y-113588000I-1000000J0D01*
G01*
%LPC*%
D13*
X126497000Y-68453000D03*
D14*
X123957000Y-68453000D03*
X121417000Y-68453000D03*
X118877000Y-68453000D03*
X116337000Y-68453000D03*
X113797000Y-68453000D03*
X111257000Y-68453000D03*
X111257000Y-76073000D03*
X113797000Y-76073000D03*
X116337000Y-76073000D03*
X118877000Y-76073000D03*
X121417000Y-76073000D03*
X123957000Y-76073000D03*
X126497000Y-76073000D03*
D15*
X106934000Y-76444000D03*
D16*
X106934000Y-73904000D03*
X106934000Y-71364000D03*
X106934000Y-68824000D03*
D15*
X106944000Y-65024000D03*
D16*
X109484000Y-65024000D03*
X112024000Y-65024000D03*
X114564000Y-65024000D03*
D15*
X106934000Y-80264000D03*
D13*
X124719000Y-112268000D03*
D14*
X124719000Y-109728000D03*
X124719000Y-107188000D03*
X124719000Y-104648000D03*
X124719000Y-102108000D03*
X124719000Y-99568000D03*
X124719000Y-97028000D03*
X124719000Y-94488000D03*
X124719000Y-91948000D03*
X124719000Y-89408000D03*
X124719000Y-86868000D03*
X124719000Y-84328000D03*
X109479000Y-84328000D03*
X109479000Y-86868000D03*
X109479000Y-89408000D03*
X109479000Y-91948000D03*
X109479000Y-94488000D03*
X109479000Y-97028000D03*
X109479000Y-99568000D03*
X109479000Y-102108000D03*
X109479000Y-104648000D03*
X109479000Y-107188000D03*
X109479000Y-109728000D03*
X109479000Y-112268000D03*
D13*
X122433000Y-112268000D03*
D14*
X122433000Y-109728000D03*
X122433000Y-107188000D03*
X122433000Y-104648000D03*
X122433000Y-102108000D03*
X122433000Y-99568000D03*
X122433000Y-97028000D03*
X122433000Y-94488000D03*
X122433000Y-91948000D03*
X122433000Y-89408000D03*
X122433000Y-86868000D03*
X122433000Y-84328000D03*
X107193000Y-84328000D03*
X107193000Y-86868000D03*
X107193000Y-89408000D03*
X107193000Y-91948000D03*
X107193000Y-94488000D03*
X107193000Y-97028000D03*
X107193000Y-99568000D03*
X107193000Y-102108000D03*
X107193000Y-104648000D03*
X107193000Y-107188000D03*
X107193000Y-109728000D03*
X107193000Y-112268000D03*
D13*
X127010000Y-112258000D03*
D14*
X127010000Y-109718000D03*
X127010000Y-107178000D03*
X127010000Y-104638000D03*
X127010000Y-102098000D03*
X127010000Y-99558000D03*
X127010000Y-97018000D03*
X127010000Y-94478000D03*
X127010000Y-91938000D03*
X127010000Y-89398000D03*
X127010000Y-86858000D03*
X127010000Y-84318000D03*
X127010000Y-81778000D03*
X127010000Y-79238000D03*
X111770000Y-79238000D03*
X111770000Y-81778000D03*
X111770000Y-84318000D03*
X111770000Y-86858000D03*
X111770000Y-89398000D03*
X111770000Y-91938000D03*
X111770000Y-94478000D03*
X111770000Y-97018000D03*
X111770000Y-99558000D03*
X111770000Y-102098000D03*
X111770000Y-104638000D03*
X111770000Y-107178000D03*
X111770000Y-109718000D03*
X111770000Y-112258000D03*
M02*
