G04 #@! TF.GenerationSoftware,KiCad,Pcbnew,(6.0.5)*
G04 #@! TF.CreationDate,2023-10-24T21:00:29+02:00*
G04 #@! TF.ProjectId,kicad-c128-byte-wide-color-ram,6b696361-642d-4633-9132-382d62797465,1.0*
G04 #@! TF.SameCoordinates,Original*
G04 #@! TF.FileFunction,Soldermask,Top*
G04 #@! TF.FilePolarity,Negative*
%FSLAX46Y46*%
G04 Gerber Fmt 4.6, Leading zero omitted, Abs format (unit mm)*
G04 Created by KiCad (PCBNEW (6.0.5)) date 2023-10-24 21:00:29*
%MOMM*%
%LPD*%
G01*
G04 APERTURE LIST*
%ADD10R,1.600000X1.600000*%
%ADD11O,1.600000X1.600000*%
%ADD12R,1.700000X1.700000*%
%ADD13O,1.700000X1.700000*%
G04 APERTURE END LIST*
D10*
X125730000Y-68453000D03*
D11*
X123190000Y-68453000D03*
X120650000Y-68453000D03*
X118110000Y-68453000D03*
X115570000Y-68453000D03*
X113030000Y-68453000D03*
X110490000Y-68453000D03*
X110490000Y-76073000D03*
X113030000Y-76073000D03*
X115570000Y-76073000D03*
X118110000Y-76073000D03*
X120650000Y-76073000D03*
X123190000Y-76073000D03*
X125730000Y-76073000D03*
D12*
X106934000Y-76444000D03*
D13*
X106934000Y-73904000D03*
X106934000Y-71364000D03*
X106934000Y-68824000D03*
D12*
X106944000Y-65024000D03*
D13*
X109484000Y-65024000D03*
X112024000Y-65024000D03*
X114564000Y-65024000D03*
D12*
X106934000Y-80264000D03*
D10*
X123952000Y-112268000D03*
D11*
X123952000Y-109728000D03*
X123952000Y-107188000D03*
X123952000Y-104648000D03*
X123952000Y-102108000D03*
X123952000Y-99568000D03*
X123952000Y-97028000D03*
X123952000Y-94488000D03*
X123952000Y-91948000D03*
X123952000Y-89408000D03*
X123952000Y-86868000D03*
X123952000Y-84328000D03*
X108712000Y-84328000D03*
X108712000Y-86868000D03*
X108712000Y-89408000D03*
X108712000Y-91948000D03*
X108712000Y-94488000D03*
X108712000Y-97028000D03*
X108712000Y-99568000D03*
X108712000Y-102108000D03*
X108712000Y-104648000D03*
X108712000Y-107188000D03*
X108712000Y-109728000D03*
X108712000Y-112268000D03*
D10*
X121666000Y-112268000D03*
D11*
X121666000Y-109728000D03*
X121666000Y-107188000D03*
X121666000Y-104648000D03*
X121666000Y-102108000D03*
X121666000Y-99568000D03*
X121666000Y-97028000D03*
X121666000Y-94488000D03*
X121666000Y-91948000D03*
X121666000Y-89408000D03*
X121666000Y-86868000D03*
X121666000Y-84328000D03*
X106426000Y-84328000D03*
X106426000Y-86868000D03*
X106426000Y-89408000D03*
X106426000Y-91948000D03*
X106426000Y-94488000D03*
X106426000Y-97028000D03*
X106426000Y-99568000D03*
X106426000Y-102108000D03*
X106426000Y-104648000D03*
X106426000Y-107188000D03*
X106426000Y-109728000D03*
X106426000Y-112268000D03*
D10*
X126243000Y-112258000D03*
D11*
X126243000Y-109718000D03*
X126243000Y-107178000D03*
X126243000Y-104638000D03*
X126243000Y-102098000D03*
X126243000Y-99558000D03*
X126243000Y-97018000D03*
X126243000Y-94478000D03*
X126243000Y-91938000D03*
X126243000Y-89398000D03*
X126243000Y-86858000D03*
X126243000Y-84318000D03*
X126243000Y-81778000D03*
X126243000Y-79238000D03*
X111003000Y-79238000D03*
X111003000Y-81778000D03*
X111003000Y-84318000D03*
X111003000Y-86858000D03*
X111003000Y-89398000D03*
X111003000Y-91938000D03*
X111003000Y-94478000D03*
X111003000Y-97018000D03*
X111003000Y-99558000D03*
X111003000Y-102098000D03*
X111003000Y-104638000D03*
X111003000Y-107178000D03*
X111003000Y-109718000D03*
X111003000Y-112258000D03*
M02*
