G04 #@! TF.GenerationSoftware,KiCad,Pcbnew,(6.0.5)*
G04 #@! TF.CreationDate,2023-10-24T21:00:29+02:00*
G04 #@! TF.ProjectId,kicad-c128-byte-wide-color-ram,6b696361-642d-4633-9132-382d62797465,1.0*
G04 #@! TF.SameCoordinates,Original*
G04 #@! TF.FileFunction,Copper,L2,Bot*
G04 #@! TF.FilePolarity,Positive*
%FSLAX46Y46*%
G04 Gerber Fmt 4.6, Leading zero omitted, Abs format (unit mm)*
G04 Created by KiCad (PCBNEW (6.0.5)) date 2023-10-24 21:00:29*
%MOMM*%
%LPD*%
G01*
G04 APERTURE LIST*
G04 #@! TA.AperFunction,ComponentPad*
%ADD10R,1.600000X1.600000*%
G04 #@! TD*
G04 #@! TA.AperFunction,ComponentPad*
%ADD11O,1.600000X1.600000*%
G04 #@! TD*
G04 #@! TA.AperFunction,ComponentPad*
%ADD12R,1.700000X1.700000*%
G04 #@! TD*
G04 #@! TA.AperFunction,ComponentPad*
%ADD13O,1.700000X1.700000*%
G04 #@! TD*
G04 #@! TA.AperFunction,ViaPad*
%ADD14C,0.800000*%
G04 #@! TD*
G04 #@! TA.AperFunction,Conductor*
%ADD15C,0.250000*%
G04 #@! TD*
G04 APERTURE END LIST*
D10*
X125730000Y-68453000D03*
D11*
X123190000Y-68453000D03*
X120650000Y-68453000D03*
X118110000Y-68453000D03*
X115570000Y-68453000D03*
X113030000Y-68453000D03*
X110490000Y-68453000D03*
X110490000Y-76073000D03*
X113030000Y-76073000D03*
X115570000Y-76073000D03*
X118110000Y-76073000D03*
X120650000Y-76073000D03*
X123190000Y-76073000D03*
X125730000Y-76073000D03*
D12*
X106934000Y-76444000D03*
D13*
X106934000Y-73904000D03*
X106934000Y-71364000D03*
X106934000Y-68824000D03*
D12*
X106944000Y-65024000D03*
D13*
X109484000Y-65024000D03*
X112024000Y-65024000D03*
X114564000Y-65024000D03*
D12*
X106934000Y-80264000D03*
D10*
X123952000Y-112268000D03*
D11*
X123952000Y-109728000D03*
X123952000Y-107188000D03*
X123952000Y-104648000D03*
X123952000Y-102108000D03*
X123952000Y-99568000D03*
X123952000Y-97028000D03*
X123952000Y-94488000D03*
X123952000Y-91948000D03*
X123952000Y-89408000D03*
X123952000Y-86868000D03*
X123952000Y-84328000D03*
X108712000Y-84328000D03*
X108712000Y-86868000D03*
X108712000Y-89408000D03*
X108712000Y-91948000D03*
X108712000Y-94488000D03*
X108712000Y-97028000D03*
X108712000Y-99568000D03*
X108712000Y-102108000D03*
X108712000Y-104648000D03*
X108712000Y-107188000D03*
X108712000Y-109728000D03*
X108712000Y-112268000D03*
D10*
X121666000Y-112268000D03*
D11*
X121666000Y-109728000D03*
X121666000Y-107188000D03*
X121666000Y-104648000D03*
X121666000Y-102108000D03*
X121666000Y-99568000D03*
X121666000Y-97028000D03*
X121666000Y-94488000D03*
X121666000Y-91948000D03*
X121666000Y-89408000D03*
X121666000Y-86868000D03*
X121666000Y-84328000D03*
X106426000Y-84328000D03*
X106426000Y-86868000D03*
X106426000Y-89408000D03*
X106426000Y-91948000D03*
X106426000Y-94488000D03*
X106426000Y-97028000D03*
X106426000Y-99568000D03*
X106426000Y-102108000D03*
X106426000Y-104648000D03*
X106426000Y-107188000D03*
X106426000Y-109728000D03*
X106426000Y-112268000D03*
D10*
X126243000Y-112258000D03*
D11*
X126243000Y-109718000D03*
X126243000Y-107178000D03*
X126243000Y-104638000D03*
X126243000Y-102098000D03*
X126243000Y-99558000D03*
X126243000Y-97018000D03*
X126243000Y-94478000D03*
X126243000Y-91938000D03*
X126243000Y-89398000D03*
X126243000Y-86858000D03*
X126243000Y-84318000D03*
X126243000Y-81778000D03*
X126243000Y-79238000D03*
X111003000Y-79238000D03*
X111003000Y-81778000D03*
X111003000Y-84318000D03*
X111003000Y-86858000D03*
X111003000Y-89398000D03*
X111003000Y-91938000D03*
X111003000Y-94478000D03*
X111003000Y-97018000D03*
X111003000Y-99558000D03*
X111003000Y-102098000D03*
X111003000Y-104638000D03*
X111003000Y-107178000D03*
X111003000Y-109718000D03*
X111003000Y-112258000D03*
D14*
X105533400Y-113377700D03*
X109857500Y-88420600D03*
X107569000Y-87855200D03*
X113138200Y-85625000D03*
X113138200Y-79779500D03*
X109072600Y-77147000D03*
X117365200Y-80593500D03*
X112407400Y-97258600D03*
D15*
X127396000Y-113237200D02*
X127396000Y-111293600D01*
X127396000Y-111293600D02*
X126947300Y-110844900D01*
X106060600Y-113904900D02*
X126728300Y-113904900D01*
X126947300Y-110844900D02*
X126243000Y-110844900D01*
X126728300Y-113904900D02*
X127396000Y-113237200D01*
X105533400Y-113377700D02*
X106060600Y-113904900D01*
X126243000Y-109718000D02*
X126243000Y-110844900D01*
X107586800Y-88226700D02*
X107586800Y-87873000D01*
X106426000Y-91948000D02*
X106426000Y-90821100D01*
X107585100Y-88228400D02*
X107585100Y-89943700D01*
X107586800Y-87873000D02*
X107569000Y-87855200D01*
X109663600Y-88226700D02*
X107586800Y-88226700D01*
X107585100Y-89943700D02*
X106707700Y-90821100D01*
X107586800Y-88226700D02*
X107585100Y-88228400D01*
X109857500Y-88420600D02*
X109663600Y-88226700D01*
X106707700Y-90821100D02*
X106426000Y-90821100D01*
X109139100Y-77213500D02*
X109072600Y-77147000D01*
X108251100Y-95653200D02*
X113138200Y-95653200D01*
X107552900Y-94955000D02*
X108251100Y-95653200D01*
X106426000Y-94488000D02*
X107552900Y-94488000D01*
X125116100Y-113244000D02*
X124963400Y-113396700D01*
X107552900Y-94488000D02*
X107552900Y-94955000D01*
X126243000Y-112258000D02*
X125116100Y-112258000D01*
X113138200Y-95653200D02*
X113138200Y-85625000D01*
X120709400Y-113396700D02*
X113138200Y-105825500D01*
X125116100Y-112258000D02*
X125116100Y-113244000D01*
X110572200Y-77213500D02*
X109139100Y-77213500D01*
X124963400Y-113396700D02*
X120709400Y-113396700D01*
X113138200Y-105825500D02*
X113138200Y-95653200D01*
X113138200Y-79779500D02*
X110572200Y-77213500D01*
X108110900Y-77910200D02*
X108110900Y-74499000D01*
X113030000Y-69016400D02*
X113879700Y-69016400D01*
X113879700Y-69016400D02*
X114443100Y-68453000D01*
X106934000Y-79087100D02*
X108110900Y-77910200D01*
X113030000Y-68453000D02*
X113030000Y-69016400D01*
X113030000Y-69016400D02*
X113030000Y-69579900D01*
X108110900Y-74499000D02*
X113030000Y-69579900D01*
X115570000Y-68453000D02*
X114443100Y-68453000D01*
X106934000Y-80264000D02*
X106934000Y-79087100D01*
X117504500Y-66200900D02*
X119523100Y-68219500D01*
X110660900Y-65391900D02*
X111469900Y-66200900D01*
X109484000Y-65024000D02*
X110660900Y-65024000D01*
X110660900Y-65024000D02*
X110660900Y-65391900D01*
X120650000Y-68453000D02*
X119523100Y-68453000D01*
X111469900Y-66200900D02*
X117504500Y-66200900D01*
X119523100Y-68219500D02*
X119523100Y-68453000D01*
X123952000Y-111141100D02*
X124233800Y-111141100D01*
X124233800Y-111141100D02*
X125080400Y-110294500D01*
X125080400Y-109185700D02*
X125961200Y-108304900D01*
X125080400Y-110294500D02*
X125080400Y-109185700D01*
X121666000Y-112268000D02*
X122792900Y-112268000D01*
X123356400Y-111704500D02*
X122792900Y-112268000D01*
X123952000Y-111704500D02*
X123356400Y-111704500D01*
X123952000Y-111704500D02*
X123952000Y-111141100D01*
X123952000Y-112268000D02*
X123952000Y-111704500D01*
X126243000Y-107178000D02*
X126243000Y-108304900D01*
X125961200Y-108304900D02*
X126243000Y-108304900D01*
X123356400Y-109164500D02*
X122792900Y-109728000D01*
X125116100Y-106610000D02*
X125961200Y-105764900D01*
X125116100Y-107631400D02*
X125116100Y-106610000D01*
X123952000Y-109164500D02*
X123356400Y-109164500D01*
X124146400Y-108601100D02*
X125116100Y-107631400D01*
X123952000Y-109728000D02*
X123952000Y-109164500D01*
X121666000Y-109728000D02*
X122792900Y-109728000D01*
X123952000Y-109164500D02*
X123952000Y-108601100D01*
X125961200Y-105764900D02*
X126243000Y-105764900D01*
X126243000Y-104638000D02*
X126243000Y-105764900D01*
X123952000Y-108601100D02*
X124146400Y-108601100D01*
X121666000Y-107188000D02*
X122792900Y-107188000D01*
X123952000Y-107188000D02*
X123952000Y-106624500D01*
X126243000Y-102098000D02*
X126243000Y-103224900D01*
X125116100Y-105110000D02*
X125116100Y-104070000D01*
X123356400Y-106624500D02*
X122792900Y-107188000D01*
X123952000Y-106061100D02*
X124165000Y-106061100D01*
X125116100Y-104070000D02*
X125961200Y-103224900D01*
X124165000Y-106061100D02*
X125116100Y-105110000D01*
X123952000Y-106624500D02*
X123952000Y-106061100D01*
X125961200Y-103224900D02*
X126243000Y-103224900D01*
X123952000Y-106624500D02*
X123356400Y-106624500D01*
X121666000Y-104648000D02*
X122792900Y-104648000D01*
X123952000Y-103521100D02*
X124165000Y-103521100D01*
X123952000Y-104648000D02*
X123952000Y-104084500D01*
X125961200Y-100684900D02*
X126243000Y-100684900D01*
X126243000Y-99558000D02*
X126243000Y-100684900D01*
X123952000Y-104084500D02*
X123356400Y-104084500D01*
X123356400Y-104084500D02*
X122792900Y-104648000D01*
X125116100Y-101530000D02*
X125961200Y-100684900D01*
X125116100Y-102570000D02*
X125116100Y-101530000D01*
X124165000Y-103521100D02*
X125116100Y-102570000D01*
X123952000Y-104084500D02*
X123952000Y-103521100D01*
X123952000Y-101544500D02*
X123356400Y-101544500D01*
X126243000Y-98144900D02*
X125961200Y-98144900D01*
X125116100Y-100030000D02*
X124165000Y-100981100D01*
X123356400Y-101544500D02*
X122792900Y-102108000D01*
X125116100Y-98990000D02*
X125116100Y-100030000D01*
X124165000Y-100981100D02*
X123952000Y-100981100D01*
X123952000Y-101544500D02*
X123952000Y-100981100D01*
X126243000Y-97018000D02*
X126243000Y-98144900D01*
X121666000Y-102108000D02*
X122792900Y-102108000D01*
X125961200Y-98144900D02*
X125116100Y-98990000D01*
X123952000Y-102108000D02*
X123952000Y-101544500D01*
X126243000Y-91938000D02*
X125116100Y-91938000D01*
X125116100Y-92405000D02*
X125116100Y-91938000D01*
X122809000Y-94002000D02*
X123593000Y-93218000D01*
X123593000Y-93218000D02*
X124303100Y-93218000D01*
X124303100Y-93218000D02*
X125116100Y-92405000D01*
X122809000Y-97028000D02*
X122809000Y-94002000D01*
X123952000Y-97028000D02*
X122809000Y-97028000D01*
X122809000Y-97028000D02*
X121666000Y-97028000D01*
X126243000Y-86858000D02*
X126243000Y-87984900D01*
X125116100Y-88830000D02*
X125961200Y-87984900D01*
X123356400Y-91384500D02*
X122792900Y-91948000D01*
X125961200Y-87984900D02*
X126243000Y-87984900D01*
X123952000Y-91384500D02*
X123356400Y-91384500D01*
X125116100Y-89890500D02*
X125116100Y-88830000D01*
X124185500Y-90821100D02*
X125116100Y-89890500D01*
X123952000Y-91384500D02*
X123952000Y-90821100D01*
X123952000Y-90821100D02*
X124185500Y-90821100D01*
X121666000Y-91948000D02*
X122792900Y-91948000D01*
X123952000Y-91948000D02*
X123952000Y-91384500D01*
X125961200Y-85444900D02*
X126243000Y-85444900D01*
X123356400Y-88844500D02*
X122792900Y-89408000D01*
X123952000Y-88844500D02*
X123952000Y-88281100D01*
X123952000Y-89408000D02*
X123952000Y-88844500D01*
X125116100Y-86290000D02*
X125961200Y-85444900D01*
X125116100Y-87330000D02*
X125116100Y-86290000D01*
X121666000Y-89408000D02*
X122792900Y-89408000D01*
X123952000Y-88281100D02*
X124165000Y-88281100D01*
X126243000Y-84318000D02*
X126243000Y-85444900D01*
X124165000Y-88281100D02*
X125116100Y-87330000D01*
X123952000Y-88844500D02*
X123356400Y-88844500D01*
X123952000Y-86304500D02*
X123356400Y-86304500D01*
X123952000Y-86304500D02*
X123952000Y-85741100D01*
X121666000Y-86868000D02*
X122792900Y-86868000D01*
X126243000Y-81778000D02*
X126243000Y-82904900D01*
X125116100Y-84790000D02*
X124165000Y-85741100D01*
X126243000Y-82904900D02*
X125961200Y-82904900D01*
X124165000Y-85741100D02*
X123952000Y-85741100D01*
X123356400Y-86304500D02*
X122792900Y-86868000D01*
X125961200Y-82904900D02*
X125116100Y-83750000D01*
X123952000Y-86868000D02*
X123952000Y-86304500D01*
X125116100Y-83750000D02*
X125116100Y-84790000D01*
X121666000Y-84328000D02*
X120539100Y-84328000D01*
X120539100Y-83767400D02*
X117365200Y-80593500D01*
X120539100Y-84328000D02*
X120539100Y-83767400D01*
X110721300Y-80364900D02*
X111003000Y-80364900D01*
X108712000Y-84328000D02*
X107552900Y-84328000D01*
X108712000Y-84328000D02*
X108712000Y-82374200D01*
X106426000Y-84328000D02*
X107552900Y-84328000D01*
X108712000Y-82374200D02*
X110721300Y-80364900D01*
X111003000Y-79238000D02*
X111003000Y-80364900D01*
X106426000Y-97028000D02*
X108712000Y-97028000D01*
X109838900Y-99568000D02*
X109838900Y-99004600D01*
X110555500Y-98288000D02*
X111378000Y-98288000D01*
X108712000Y-99568000D02*
X109838900Y-99568000D01*
X109838900Y-99004600D02*
X110555500Y-98288000D01*
X111378000Y-98288000D02*
X112407400Y-97258600D01*
X108351200Y-98315600D02*
X107569000Y-99097800D01*
X109876100Y-97581400D02*
X109141900Y-98315600D01*
X106426000Y-102108000D02*
X107552900Y-102108000D01*
X108712000Y-101544500D02*
X108116400Y-101544500D01*
X107569000Y-99097800D02*
X107569000Y-100997100D01*
X107569000Y-100997100D02*
X108116400Y-101544500D01*
X109876100Y-97018000D02*
X109876100Y-97581400D01*
X108116400Y-101544500D02*
X107552900Y-102108000D01*
X111003000Y-97018000D02*
X109876100Y-97018000D01*
X108712000Y-102108000D02*
X108712000Y-101544500D01*
X109141900Y-98315600D02*
X108351200Y-98315600D01*
X108116300Y-105211400D02*
X107552900Y-104648000D01*
X108712000Y-105211400D02*
X108712000Y-105774900D01*
X111003000Y-109718000D02*
X111003000Y-108591100D01*
X109876100Y-106705500D02*
X108945500Y-105774900D01*
X111003000Y-108591100D02*
X110721200Y-108591100D01*
X106426000Y-104648000D02*
X107552900Y-104648000D01*
X109876100Y-107746000D02*
X109876100Y-106705500D01*
X108712000Y-105211400D02*
X108116300Y-105211400D01*
X108712000Y-104648000D02*
X108712000Y-105211400D01*
X108945500Y-105774900D02*
X108712000Y-105774900D01*
X110721200Y-108591100D02*
X109876100Y-107746000D01*
X108712000Y-112268000D02*
X109838900Y-112268000D01*
X111003000Y-112258000D02*
X109848900Y-112258000D01*
X106426000Y-112268000D02*
X108712000Y-112268000D01*
X109848900Y-112258000D02*
X109838900Y-112268000D01*
X125730000Y-68453000D02*
X125730000Y-69579900D01*
X119380000Y-75648200D02*
X125448300Y-69579900D01*
X111332200Y-85588000D02*
X119380000Y-77540200D01*
X109862500Y-84895100D02*
X110555400Y-85588000D01*
X109838900Y-86304500D02*
X110555400Y-85588000D01*
X108712000Y-86868000D02*
X109838900Y-86868000D01*
X119380000Y-77540200D02*
X119380000Y-75648200D01*
X109838900Y-86868000D02*
X109838900Y-86304500D01*
X109862500Y-82918500D02*
X109862500Y-84895100D01*
X110555400Y-85588000D02*
X111332200Y-85588000D01*
X111003000Y-81778000D02*
X109862500Y-82918500D01*
X125448300Y-69579900D02*
X125730000Y-69579900D01*
X114298500Y-80129100D02*
X111236500Y-83191100D01*
X118110000Y-68453000D02*
X118110000Y-69579900D01*
X111236500Y-83191100D02*
X111003000Y-83191100D01*
X118110000Y-69579900D02*
X114298500Y-73391400D01*
X114298500Y-73391400D02*
X114298500Y-80129100D01*
X111003000Y-84318000D02*
X111003000Y-83191100D01*
X110651900Y-90668000D02*
X109838900Y-91481000D01*
X111284700Y-87984900D02*
X112132800Y-88833000D01*
X111003000Y-87984900D02*
X111284700Y-87984900D01*
X108712000Y-91948000D02*
X109838900Y-91948000D01*
X112132800Y-88833000D02*
X112132800Y-89917600D01*
X111382400Y-90668000D02*
X110651900Y-90668000D01*
X112132800Y-89917600D02*
X111382400Y-90668000D01*
X109838900Y-91481000D02*
X109838900Y-91948000D01*
X111003000Y-86858000D02*
X111003000Y-87984900D01*
X108430300Y-93361100D02*
X107569100Y-92499900D01*
X108712000Y-94488000D02*
X108712000Y-93361100D01*
X109071700Y-90642600D02*
X109876100Y-89838200D01*
X109876100Y-89838200D02*
X109876100Y-89398000D01*
X111003000Y-89398000D02*
X109876100Y-89398000D01*
X107569100Y-92499900D02*
X107569100Y-91462000D01*
X107569100Y-91462000D02*
X108388500Y-90642600D01*
X108712000Y-93361100D02*
X108430300Y-93361100D01*
X108388500Y-90642600D02*
X109071700Y-90642600D01*
M02*
